<svg width="25" height="25" viewBox="0 0 25 25" fill="none" xmlns="http://www.w3.org/2000/svg">
<path d="M14.364 2.50078L20.8623 13.7562C21.6584 15.1351 21.8741 16.7737 21.4621 18.3116C21.05 19.8496 20.0438 21.1608 18.6649 21.9569C17.2861 22.753 15.6474 22.9687 14.1095 22.5566C12.5716 22.1445 11.2603 21.1384 10.4642 19.7595L3.96592 8.50411C3.43519 7.58487 3.29137 6.49244 3.5661 5.46715C3.84082 4.44186 4.51159 3.5677 5.43084 3.03697C6.35008 2.50625 7.44251 2.36242 8.4678 2.63715C9.49309 2.91187 10.3672 3.58264 10.898 4.50189L17.3937 15.767C17.6591 16.2266 17.731 16.7728 17.5936 17.2854C17.4562 17.7981 17.1209 18.2352 16.6612 18.5005C16.2016 18.7659 15.6554 18.8378 15.1428 18.7004C14.6301 18.5631 14.193 18.2277 13.9277 17.7681L7.93399 7.37257" stroke="#999EA9" stroke-width="2" stroke-linecap="round" stroke-linejoin="round"/>
</svg>
