<svg width="60" height="48" viewBox="0 0 60 48" fill="none" xmlns="http://www.w3.org/2000/svg">
<g clip-path="url(#clip0_813_244)">
<path d="M57.1386 26.6568V9.89239C57.1386 4.38012 52.0212 0.787295 46.8666 0.590428C45.1237 0.516603 43.3684 0.590428 41.6255 0.590428H12.8984C7.78096 0.590428 2.61404 3.92486 2.19377 9.31409C2.1196 10.2 2.18141 11.1105 2.18141 11.9964V26.7897C0.881025 28.8199 0.133182 31.2118 0.117113 33.6887C0.109696 35.0028 0.107224 36.3181 0.107224 37.6322C0.10228 37.69 0.10228 37.749 0.107224 37.8069C0.107224 40.6405 0.117113 43.4742 0.117113 46.3005C0.117113 46.8049 0.537388 47.2233 1.04419 47.2233H58.3376C58.6442 47.2331 58.8692 47.1138 59.015 46.9341C59.1584 46.7865 59.2524 46.5798 59.2524 46.3128V33.7133C59.2524 31.2131 58.5169 28.7387 57.1386 26.6581V26.6568ZM4.03556 9.89239C4.03556 5.24141 8.60915 2.42375 12.8861 2.42375H41.5266C43.2448 2.42375 44.963 2.41145 46.6812 2.42375C49.3759 2.44836 52.2066 3.60495 53.8753 5.77049C54.9013 7.09934 55.2845 8.61275 55.2845 10.2615V24.447C53.3908 22.6567 51.0026 21.5174 48.4228 21.0818C48.5032 20.8394 48.5477 20.5786 48.5477 20.3017V13.7559C48.5477 12.4394 47.4476 11.3197 46.1126 11.3197H34.4067C32.9357 11.3197 31.2917 11.1966 30.6242 12.87C30.3893 13.4606 30.4635 14.125 30.4635 14.7402V20.0064C30.4635 20.314 30.4944 20.6069 30.5611 20.88H28.8009C28.8442 20.6955 28.8701 20.5035 28.8701 20.3017V13.7559C28.8701 12.4394 27.77 11.3197 26.435 11.3197H14.7291C13.2581 11.3197 11.6141 11.1966 10.9466 12.87C10.7118 13.4606 10.7859 14.125 10.7859 14.7402V20.0064C10.7859 20.3817 10.8304 20.7336 10.9318 21.0572C10.472 21.1249 10.0146 21.2135 9.56219 21.3353C7.42991 21.9025 5.54856 23.0234 4.0368 24.5085V9.89239H4.03556ZM32.3053 20.2771V13.7559C32.3053 13.2145 32.7997 13.1776 33.2076 13.1776H45.4945C45.9642 13.1776 46.6441 13.0792 46.6812 13.7559C46.7183 14.4326 46.6812 15.1217 46.6812 15.7984V19.2559C46.6923 19.7197 46.8691 20.693 46.2807 20.8837C46.188 20.8825 46.094 20.88 46.0013 20.88H32.7552C32.4895 20.8074 32.3053 20.6241 32.3053 20.2771ZM12.6265 20.2771V13.7559C12.6265 13.2145 13.1209 13.1776 13.5288 13.1776H25.8157C26.2854 13.1776 26.9653 13.0792 27.0024 13.7559C27.0395 14.4326 27.0024 15.1217 27.0024 15.7984V19.2559C27.0024 19.7173 27.1866 20.6819 26.6118 20.88H16.3595C15.2705 20.88 14.1741 20.8493 13.0839 20.8825C12.8131 20.8123 12.6265 20.6278 12.6265 20.2771ZM3.7834 27.6301C3.85633 27.5587 3.9169 27.4751 3.96016 27.3754C4.07265 27.2179 4.18637 27.0616 4.30751 26.9091C5.98861 24.8051 8.36193 23.427 10.9948 22.9102C11.6302 22.7909 12.2779 22.7552 12.9256 22.7429C13.556 22.8278 14.2569 22.7626 14.8144 22.7626H26.3225C26.3584 22.7638 26.3955 22.765 26.4338 22.7626C26.5079 22.7626 26.5784 22.7552 26.6439 22.7416C26.6575 22.7404 26.6711 22.7392 26.6847 22.738H32.5661C33.2064 22.8302 33.9246 22.7626 34.4932 22.7626H46.0013C46.0372 22.7638 46.0742 22.765 46.1126 22.7626C46.1867 22.7626 46.2572 22.7552 46.3227 22.7416C46.3289 22.7416 46.3363 22.7416 46.3437 22.7392C48.094 22.7601 49.7949 23.1292 51.3673 23.9179C52.9396 24.7128 54.3079 25.8927 55.3376 27.3139C55.3895 27.464 55.4773 27.5833 55.5885 27.6756C55.9804 28.2638 56.3166 28.8876 56.5836 29.5422C57.2388 31.154 57.3994 32.8028 57.3994 34.5254V36.6048C53.9346 35.7595 50.4006 34.7825 46.8184 35.2021C44.5316 35.4728 42.356 36.2849 40.0445 36.4202C37.7083 36.5555 35.5204 35.9649 33.2707 35.4728C31.3794 35.0544 29.414 34.9929 27.4857 35.239C26.435 35.3743 25.4091 35.6327 24.3707 35.8665C23.1593 36.1495 21.9603 36.3833 20.7119 36.4325C19.2533 36.494 17.8317 36.3095 16.4102 35.9772C13.6537 35.3497 10.9837 34.8453 8.14067 35.2636C6.41012 35.5097 4.7043 35.9896 3.01083 36.371C2.65607 36.4534 2.30255 36.5359 1.94778 36.6158V33.7379C1.94778 31.5748 2.58809 29.4302 3.78464 27.6301H3.7834ZM46.8419 45.4146H1.94655V38.5094C5.54979 37.6469 9.25564 36.5199 12.9726 37.1215C15.2594 37.4907 17.4102 38.2166 19.7712 38.2904C22.1074 38.352 24.32 37.749 26.5821 37.2569C28.4486 36.8385 30.4264 36.8385 32.3176 37.1708C33.1953 37.3184 34.0605 37.5522 34.9258 37.749C37.7812 38.4012 40.5748 38.4258 43.4426 37.7737C44.2708 37.5891 45.0866 37.3799 45.9148 37.2077C47.7937 36.8262 49.7714 36.8508 51.6503 37.2077C53.2202 37.503 54.7653 37.9213 56.3228 38.2658C56.6837 38.3483 57.041 38.4307 57.3982 38.5131V45.4146H46.8419Z" fill="black"/>
</g>
<defs>
<clipPath id="clip0_813_244">
<rect width="59.1488" height="46.6661" fill="white" transform="translate(0.103516 0.556641)"/>
</clipPath>
</defs>
</svg>
