<svg width="59" height="48" viewBox="0 0 59 48" fill="none" xmlns="http://www.w3.org/2000/svg">
<path fill-rule="evenodd" clip-rule="evenodd" d="M30.3326 41.6098L33.0719 47.2227L35.9489 44.1117L33.2095 38.5001L30.3326 41.6098ZM28.4679 28.7858L25.5382 31.7873L28.4618 37.7777L31.3387 34.6667L28.4679 28.7858ZM49.9649 20.3791L52.8062 17.3071L58.2627 19.9814L55.4214 23.0534L49.9649 20.3791ZM40.973 15.9743L46.2379 18.553L49.0792 15.481L43.9212 12.954L40.973 15.9743ZM40.2003 39.5144L36.6969 34.7284L39.4387 31.7621L42.9421 36.5481L40.2003 39.5144ZM37.0458 28.4938L33.4921 23.6385L30.6839 26.5155L34.304 31.4601L37.0458 28.4938ZM40.3379 24.9348L35.8309 21.2424L38.628 18.3768L43.0502 22.0013L40.3379 24.9348ZM43.4175 27.4593L47.9282 31.1568L50.6417 28.2232L46.131 24.5258L43.4175 27.4593ZM38.4978 7.78115L41.7211 4.47887L44.1779 6.99585L18.626 33.1724L16.1692 30.6555L19.1075 27.6452L16.0709 24.5342C11.8305 20.1785 10.8429 13.5048 13.6338 8.05676C12.6916 7.39227 11.575 7.03612 10.4313 7.03612C7.31243 7.03612 4.78439 9.62735 4.78439 12.8227V43.1535H0.853516V12.8227C0.853516 10.799 1.46403 8.82443 2.60153 7.17078C5.64795 2.74089 11.6241 1.67873 15.9481 4.79978C15.969 4.77839 15.9895 4.75668 16.0101 4.73497C16.0307 4.71326 16.0513 4.69155 16.0721 4.67016C21.4267 -0.815601 30.1066 -0.815601 35.4612 4.67016L38.4978 7.78115ZM18.852 21.6862L21.6147 24.5165L35.444 10.3472L32.6813 7.51686C28.8721 3.65959 22.7423 3.65959 18.9331 7.51686C15.0919 11.4069 15.055 17.7509 18.852 21.6862Z" fill="black"/>
</svg>
