<?xml version="1.0" encoding="UTF-8"?>
<svg id="Camada_2" data-name="Camada 2" xmlns="http://www.w3.org/2000/svg" viewBox="0 0 42.7 25.37">
  <defs>
    <style>
      .cls-1 {
        fill: #1d1d1b;
        strokeWidth: 0px;
      }
    </style>
  </defs>
  <g id="Camada_1-2" data-name="Camada 1">
    <path class="cls-1" d="M9.43,23.94c-.38,0-.77-.15-1.06-.44L.44,15.57c-.59-.59-.59-1.54,0-2.12.59-.59,1.54-.59,2.12,0l6.87,6.87L29.31.44c.59-.59,1.54-.59,2.12,0,.59.59.59,1.54,0,2.12L10.49,23.5c-.29.29-.68.44-1.06.44Z"/>
    <path class="cls-1" d="M19.59,25.37c-.38,0-.77-.15-1.06-.44l-3.03-3.03c-.59-.59-.59-1.54,0-2.12.59-.59,1.54-.59,2.12,0l1.97,1.97L40.14,1.2c.59-.59,1.54-.59,2.12,0,.59.59.59,1.54,0,2.12l-21.61,21.61c-.29.29-.68.44-1.06.44Z"/>
  </g>
</svg>