<?xml version="1.0" encoding="UTF-8"?>
<svg id="Camada_2" data-name="Camada 2" xmlns="http://www.w3.org/2000/svg" viewBox="0 0 77.03 52.39">
  <defs>
    <style>
      .cls-1 {
        fill: #1d1d1b;
        strokeWidth: 0px;
      }
    </style>
  </defs>
  <g id="Camada_1-2" data-name="Camada 1">
    <path class="cls-1" d="M0,2.73v46.9c0,1.52,1.23,2.75,2.75,2.75h55.04c1.52,0,2.75-1.23,2.75-2.75V17.63c0-.74.29-1.44.81-1.96L77.03,0H2.73C1.22,0,0,1.22,0,2.73ZM39.19,37.54H13.85c-1.52,0-2.75-1.23-2.75-2.75v-3.14c0-1.52,1.23-2.75,2.75-2.75h25.34c1.52,0,2.75,1.23,2.75,2.75v3.14c0,1.52-1.23,2.75-2.75,2.75ZM47.23,23.5H13.81c-1.5,0-2.71-1.21-2.71-2.71v-3.22c0-1.5,1.21-2.71,2.71-2.71h33.42c1.5,0,2.71,1.21,2.71,2.71v3.22c0,1.5-1.21,2.71-2.71,2.71Z"/>
  </g>
</svg>