<?xml version="1.0" encoding="UTF-8"?>
<svg id="Camada_2" data-name="Camada 2" xmlns="http://www.w3.org/2000/svg" viewBox="0 0 69.77 83.36">
  <defs>
    <style>
      .cls-1 {
        fill: #000;
        strokeWidth: 0px;
      }
    </style>
  </defs>
  <g id="Camada_1-2" data-name="Camada 1">
    <g>
      <path class="cls-1" d="M64.55,4.79c0-.8-.64-1.44-1.44-1.44h-12.36c-.8,0-1.44.64-1.44,1.44v3.91l15.24,12.18V4.79Z"/>
      <path class="cls-1" d="M1.75,31.78c1.05,1.29,2.94,1.49,4.23.44l28.15-22.79c.54-.44,1.31-.43,1.85,0l28.04,22.79c1.29,1.05,3.19.85,4.23-.44l.84-1.03c1.05-1.29.85-3.19-.44-4.23L37.82,1.45l-.98-.79c-.48-.39-1.04-.61-1.62-.66-.05,0-.1,0-.15,0-.05,0-.1,0-.15,0-.57.05-1.14.27-1.62.66l-.97.78L1.36,26.52c-1.29,1.05-1.49,2.94-.44,4.23l.84,1.03Z"/>
      <g>
        <polygon class="cls-1" points="45.01 70.6 45.01 71.23 45.01 72.43 63.23 72.43 63.23 70.6 45.64 70.6 45.01 70.6"/>
        <rect class="cls-1" x="45.01" y="76.07" width="18.22" height="1.82"/>
        <polygon class="cls-1" points="45.01 59.67 45.01 61.49 55.63 61.49 63.23 61.49 63.23 59.67 57.45 59.67 45.01 59.67"/>
        <polygon class="cls-1" points="45.01 65.14 45.01 66.96 50.16 66.96 63.23 66.96 63.23 65.14 51.98 65.14 45.01 65.14"/>
        <rect class="cls-1" x="16.58" y="41.78" width="12.06" height="25.19"/>
        <path class="cls-1" d="M0,72.27v1.96c0,1.49,1.21,2.69,2.7,2.69h34.84v-7.35H2.7c-1.49,0-2.7,1.21-2.7,2.7Z"/>
        <polygon class="cls-1" points="55.94 50.55 55.94 48.73 54.12 48.73 45.01 48.73 45.01 50.55 54.12 50.55 55.94 50.55"/>
        <path class="cls-1" d="M64.43,46.97l-3.68-3.71h-20.33s-.11,0-.26.05c-.26.07-.62.27-.62.85v38.31c0,.89.88.89.88.89h27.4s.88,0,.88-.89v-31.19l-4.27-4.31ZM66.88,81.54h-25.52v-36.45h18.23v5.46c0,1.83,1.82,1.83,1.82,1.83h5.47v29.16Z"/>
        <polygon class="cls-1" points="60.28 54.2 57.42 54.2 45.01 54.2 45.01 55.97 45.01 56.02 61.1 56.02 63.23 56.02 63.23 54.38 63.23 54.2 62.92 54.2 60.28 54.2"/>
        <path class="cls-1" d="M48.53,41.26h8.88s4.18,0,4.18,0l2.85,2.87v-6.62c0-1.19-.54-2.32-1.47-3.07l-26.07-21.07c-.5-.41-1.13-.63-1.77-.64-.64.01-1.26.23-1.76.63L6.36,34.91c-.43.48-.74,1.05-.89,1.67v30.38h7.9v-28.34h18.95v28.34h5.22v-25.7h10.99Z"/>
      </g>
    </g>
  </g>
</svg>