<?xml version="1.0" encoding="UTF-8"?>
<svg id="Camada_2" data-name="Camada 2" xmlns="http://www.w3.org/2000/svg" viewBox="0 0 86.21 90.99">
  <defs>
    <style>
      .cls-1 {
        fill: #000;
        strokeWidth: 0px;
      }
    </style>
  </defs>
  <g id="Camada_1-2" data-name="Camada 1">
    <g>
      <path class="cls-1" d="M64.54,4.79c0-.8-.64-1.44-1.44-1.44h-12.36c-.8,0-1.44.64-1.44,1.44v3.91l15.24,12.18V4.79Z"/>
      <rect class="cls-1" x="40.16" y="41.78" width="13.96" height="10.93"/>
      <path class="cls-1" d="M33.27,66.96h16.89l14.27-14.27v-15.18c0-1.19-.54-2.32-1.47-3.07l-26.07-21.07c-.5-.41-1.13-.63-1.77-.64-.64.01-1.26.23-1.76.63L6.35,34.92c-.43.48-.74,1.05-.89,1.67v30.38h7.9v-28.34h18.95v28.34h.95ZM36.58,38.75h20.81l.02,7.4v9.83h-20.84v-17.23Z"/>
      <path class="cls-1" d="M85.68,47.87c-.35-.84-.85-1.6-1.5-2.24-.65-.65-1.4-1.15-2.24-1.5-1.68-.7-3.61-.7-5.29,0-.84.35-1.6.85-2.24,1.5l-31.92,31.92-3.67,13.45,13.45-3.67,31.92-31.92c.65-.65,1.15-1.4,1.5-2.24.35-.84.53-1.73.53-2.65s-.18-1.8-.53-2.65ZM81.06,51.25c-.1.23-.24.44-.41.62l-30.98,30.98-3.72,1.02,1.02-3.72,30.98-30.98c.18-.18.39-.32.62-.42.46-.19,1-.19,1.46,0,.23.1.44.24.62.42.18.18.32.39.41.62.1.24.15.48.15.73s-.05.5-.15.73Z"/>
      <rect class="cls-1" x="16.57" y="41.78" width="12.06" height="25.19"/>
      <path class="cls-1" d="M46.66,69.58H2.7c-1.49,0-2.7,1.21-2.7,2.7v1.96c0,1.49,1.21,2.7,2.7,2.7h36.62l7.35-7.35Z"/>
      <path class="cls-1" d="M1.75,31.78c1.05,1.29,2.94,1.49,4.23.44l28.15-22.79c.54-.44,1.31-.43,1.85,0l28.04,22.79c1.29,1.05,3.19.85,4.23-.44l.84-1.03c1.05-1.29.85-3.19-.44-4.23L37.81,1.45l-.98-.79c-.48-.39-1.04-.61-1.62-.66-.05,0-.1,0-.15,0-.05,0-.1,0-.15,0-.57.05-1.14.27-1.62.66l-.97.78L1.36,26.52c-1.29,1.05-1.49,2.94-.44,4.23l.84,1.03Z"/>
    </g>
  </g>
</svg>