<svg width="14" height="14" viewBox="0 0 14 14" fill="none" xmlns="http://www.w3.org/2000/svg">
<path d="M10.3664 1.47141C10.5311 1.30678 10.7265 1.1762 10.9416 1.0871C11.1567 0.998005 11.3872 0.952148 11.6201 0.952148C11.8529 0.952148 12.0834 0.998005 12.2985 1.0871C12.5136 1.1762 12.709 1.30678 12.8737 1.47141C13.0383 1.63604 13.1689 1.83148 13.258 2.04657C13.3471 2.26167 13.3929 2.49221 13.3929 2.72502C13.3929 2.95784 13.3471 3.18838 13.258 3.40347C13.1689 3.61857 13.0383 3.81401 12.8737 3.97863L4.41179 12.4405L0.964355 13.3807L1.90456 9.93329L10.3664 1.47141Z" stroke="black" strokeLinecap="round" strokeLinejoin="round"/>
</svg>
