<?xml version="1.0" encoding="UTF-8"?>
<svg id="Camada_2" data-name="Camada 2" xmlns="http://www.w3.org/2000/svg" viewBox="0 0 61 51">
  <defs>
    <style>
      .cls-1 {
        fill: #010101;
        strokeWidth: 0px;
      }
    </style>
  </defs>
  <g id="Camada_1-2" data-name="Camada 1">
    <path class="cls-1" d="M52.1,0H8.9C3.99,0,0,4.04,0,9v33c0,4.96,3.99,9,8.9,9h43.2c4.91,0,8.9-4.04,8.9-9V9c0-4.96-3.99-9-8.9-9ZM8.9,7h43.2c.65,0,1.24.37,1.58.91l-23.18,16.31L7.32,7.91c.34-.54.93-.91,1.58-.91ZM52.1,44H8.9c-1.03,0-1.9-.92-1.9-2v-25.76l21.49,15.12c.6.42,1.31.64,2.01.64s1.41-.21,2.01-.64l21.49-15.12v25.76c0,1.08-.87,2-1.9,2Z"/>
  </g>
</svg>