<?xml version="1.0" encoding="UTF-8"?>
<svg id="Camada_2" data-name="Camada 2" xmlns="http://www.w3.org/2000/svg" viewBox="0 0 65.28 55.01">
  <defs>
    <style>
      .cls-1 {
        fill: #010101;
        strokeWidth: 0px;
      }
    </style>
  </defs>
  <g id="Camada_1-2" data-name="Camada 1">
    <g>
      <path class="cls-1" d="M21.61,5.25c-.84-3.02-3.6-5.25-6.89-5.25s-6.05,2.23-6.89,5.25H0v3.8h7.84c.84,3.02,3.6,5.25,6.89,5.25s6.05-2.23,6.89-5.25h43.67v-3.8H21.61ZM14.73,10.51c-1.14,0-2.15-.58-2.76-1.45-.37-.54-.59-1.19-.59-1.9s.22-1.36.59-1.9c.61-.88,1.62-1.45,2.76-1.45s2.15.58,2.76,1.45c.37.54.59,1.19.59,1.9s-.22,1.36-.59,1.9c-.61.88-1.62,1.45-2.76,1.45Z"/>
      <path class="cls-1" d="M50.02,20.35c-3.29,0-6.05,2.23-6.89,5.25H0v3.8h43.13c.84,3.02,3.6,5.25,6.89,5.25s6.05-2.23,6.89-5.25h8.38v-3.8h-8.38c-.84-3.02-3.6-5.25-6.89-5.25ZM50.02,30.86c-1.14,0-2.15-.58-2.76-1.45-.37-.54-.59-1.19-.59-1.9s.22-1.36.59-1.9c.61-.88,1.62-1.45,2.76-1.45s2.15.58,2.76,1.45c.37.54.59,1.19.59,1.9s-.22,1.36-.59,1.9c-.61.88-1.62,1.45-2.76,1.45Z"/>
      <path class="cls-1" d="M25.23,40.71c-3.29,0-6.05,2.23-6.89,5.25H0v3.8h18.34c.84,3.02,3.6,5.25,6.89,5.25s6.05-2.23,6.89-5.25h33.16v-3.8h-33.16c-.84-3.02-3.6-5.25-6.89-5.25ZM25.23,51.21c-1.14,0-2.15-.58-2.76-1.45-.37-.54-.59-1.19-.59-1.9s.22-1.36.59-1.9c.61-.88,1.62-1.45,2.76-1.45s2.15.58,2.76,1.45c.37.54.59,1.19.59,1.9s-.22,1.36-.59,1.9c-.61.88-1.62,1.45-2.76,1.45Z"/>
    </g>
  </g>
</svg>