<svg id="Icons" xmlns="http://www.w3.org/2000/svg" viewBox="0 0 60 60"><path d="M6,49.918,11.88,58h2.683A26.461,26.461,0,0,1,8.377,44.746Z"/><path d="M14,35.525V37.5l3,2.25,3-2.25V35.525a9.711,9.711,0,0,1-6,0Z"/><polygon points="18.493 41.13 21 43.804 23.507 41.13 21 39.25 18.493 41.13"/><path d="M26.56,42l3.258,7.082a1.993,1.993,0,0,1-.151,1.925L24.592,58H30a2,2,0,0,0,2-2V47a4.917,4.917,0,0,0-1.183-3.2,4,4,0,0,1-2.043-1.457A5.015,5.015,0,0,0,27,42Z"/><polygon points="10.493 41.13 13 43.804 15.507 41.13 13 39.25 10.493 41.13"/><path d="M16,43.528l-1.854,1.977a1.576,1.576,0,0,1-2.282.012l-1.592-1.7A25.06,25.06,0,0,0,16,56.6Z"/><path d="M25.627,44.721A26.459,26.459,0,0,1,19.437,58H22.12l5.9-8.128Z"/><path d="M21,46a1.572,1.572,0,0,1-1.136-.483L18,43.528V56.6a24.978,24.978,0,0,0,5.732-12.791l-1.586,1.692A1.576,1.576,0,0,1,21,46Z"/><path d="M20.962,5.622a3.978,3.978,0,0,0-7.924,0,12.93,12.93,0,0,1,7.924,0Z"/><path d="M7.007,19.124c.483-3.874,4.062-6.73,8.949-7.086A2.021,2.021,0,0,1,18.069,13.6h0c.287,1.1,1.57,1.465,3.648,1.926s4.665,1.037,5.192,3.56a4.114,4.114,0,0,1,.986.4A11.171,11.171,0,0,0,28,18,11,11,0,1,0,6.106,19.489,3.957,3.957,0,0,1,7.007,19.124Z"/><path d="M7.49,24.935a1.99,1.99,0,0,1,1.538,1.741,8,8,0,0,0,15.944,0,1.991,1.991,0,0,1,1.537-1.742,2,2,0,0,0-.033-3.878,2.029,2.029,0,0,1-1.525-1.566c-.245-1.174-1.55-1.544-3.669-2.015s-4.533-1.008-5.148-3.376a.127.127,0,0,0-.039-.07c-3.951.291-6.724,2.386-7.06,5.34A2,2,0,0,1,7.5,21.062a2,2,0,0,0-.011,3.873Z"/><path d="M4,58H9.408L4.36,51.048a2.012,2.012,0,0,1-.181-1.959L7.44,42H7a5.006,5.006,0,0,0-5,5v9A2,2,0,0,0,4,58Z"/><path d="M33,42h4a2,2,0,0,0,2-2H31A2,2,0,0,0,33,42Z"/><path d="M57,40H49a2,2,0,0,0,2,2h4A2,2,0,0,0,57,40Z"/><path d="M44,36a3.939,3.939,0,0,1-1-.142V49h2V35.858A3.939,3.939,0,0,1,44,36Z"/><path d="M40,53h8a2,2,0,0,0-2-2H42A2,2,0,0,0,40,53Z"/><path d="M38,56v2H50l0-2a1,1,0,0,0-1-1H39A1,1,0,0,0,38,56Z"/><path d="M57,31H45.722a1.983,1.983,0,0,0-3.444,0H31a1,1,0,0,0,0,2h2.484L31.34,38h2.18L35,34.54,36.48,38h2.18l-2.144-5h5.762a1.983,1.983,0,0,0,3.444,0h5.762L49.34,38h2.18L53,34.54,54.48,38h2.18l-2.144-5H57a1,1,0,0,0,0-2Z"/></svg>