<?xml version="1.0" encoding="UTF-8"?>
<svg id="Camada_2" data-name="Camada 2" xmlns="http://www.w3.org/2000/svg" viewBox="0 0 1990.26 297.78">
  <defs>
    <style>
      .cls-1 {
        fill: #000;
      }

      .cls-1, .cls-2 {
        stroke-width: 0px;
      }

      .cls-2 {
        fill: none;
      }
    </style>
  </defs>
  <g id="Camada_1-2" data-name="Camada 1">
    <path class="cls-1" d="M127.88,7.26l-47.31,283.26H0L47.31,7.26h80.57Z"/>
    <path class="cls-1" d="M624.41,297.78c-33.48,0-62.53-10.96-87.16-32.89-24.63-21.92-36.94-53.36-36.94-94.31,0-47.45,13.76-87.74,41.29-120.88C569.14,16.57,605.11,0,649.52,0c35.55,0,64.74,11.59,87.57,34.76,22.83,23.17,34.24,53.51,34.24,90.99,0,47.87-13.56,88.51-40.67,121.91-27.12,33.41-62.53,50.11-106.25,50.11ZM625.03,231.79c14.66,0,25.8-6.19,33.41-18.57,7.61-12.38,13.62-30.54,18.05-54.47,4.43-23.93,6.64-40.12,6.64-48.56,0-14.53-3.36-25.53-10.06-33-6.71-7.47-15.6-11.21-26.67-11.21-21.17,0-36.04,14.73-44.61,44.2-8.58,29.47-12.87,55.55-12.87,78.23,0,28.92,12.04,43.37,36.11,43.37Z"/>
    <path class="cls-1" d="M1261.89,222.45l-11.21,68.06h-193.61L1104.39,7.26h86.04l-35.94,215.19h107.4Z"/>
    <path class="cls-1" d="M1408.86,7.26l-47.31,283.26h-80.58L1328.29,7.26h80.57Z"/>
    <g>
      <path class="cls-2" d="M934.36,67.03h-32.45l-8.08,48.35h32.43c25.92,0,38.88-8.58,38.88-25.73,0-15.08-10.26-22.62-30.78-22.62Z"/>
      <path class="cls-1" d="M986.73,146.09c18.4-4.15,33.06-12.28,43.99-24.38,10.93-12.1,16.39-26.8,16.39-44.1,0-15.77-4.6-29.54-13.8-41.3-9.2-11.76-20.58-19.54-34.14-23.34-13.56-3.8-30.99-5.71-52.29-5.71h-117.04l-27.97,167.46h117.58c10.8,0,18.94,2.46,24.41,7.37,5.47,4.91,8.21,11.38,8.21,19.4,0,6.5-2.49,12.52-7.47,18.05-4.98,5.53-14.05,8.3-27.2,8.3h-42.29l-11.07,62.67h72.87c34.58,0,59.31-8.3,74.19-24.9,14.87-16.6,22.31-35.9,22.31-57.89,0-30.16-15.56-50.7-46.69-61.63ZM926.27,115.38h-32.43l8.08-48.35h32.45c20.52,0,30.78,7.54,30.78,22.62,0,17.15-12.96,25.73-38.88,25.73Z"/>
    </g>
    <path class="cls-1" d="M1698.29,7.26l-47.31,283.26h-62.96l-54.33-108.75c-14.79-29.75-24.14-53.27-28.04-70.56.27,4.15.42,7.4.42,9.76,0,7.75-1.04,17.99-3.12,30.72l-23.26,138.84h-69.01L1457.99,7.26h76.29l31.12,65.58c21.57,45.38,35.62,78.93,42.12,100.65-.41-5.67-.62-9.9-.62-12.67,0-8.03,1.87-23.39,5.6-46.07l18.04-107.48h67.75Z"/>
    <path class="cls-1" d="M1990.26,7.26h-80.86l-40.36,45.5c-20.25,24.52-34.91,42.06-43.97,52.62-9.07,10.57-15.88,21.24-20.45,32.01l21.73-130.13h-78.89l-47.31,283.26h78.89l11.53-69.07,42.97-47.91,61.43-58.9,95.28-107.38Z"/>
    <polygon class="cls-1" points="1836.7 185.07 1865.58 290.52 1949.17 290.52 1898.44 125.87 1836.7 185.07"/>
    <path class="cls-1" d="M473.66,7.71h-99.6l-56.13,125.34c-3.74,8.16-6.59,15.43-8.52,21.79-.97-4.29-2.08-11.55-3.33-21.79l-15.2-125.34h-113.96l-47.22,283.26h64.17l22.17-132.81c4.7-28.36,8.98-62.12,12.85-101.27.55,5.4,1.1,13.01,1.65,22.83.69,16.46,1.93,31.96,3.73,46.48l19.44,164.77h51.05l73.31-164.77c5.68-12.87,11.91-28.36,18.69-46.48.78-2.13,1.51-4.13,2.2-5.99,1.9-5.17,3.45-9.31,4.66-12.45l.25-.15L488.75,7.74v-.03s-15.09,0-15.09,0Z"/>
    <polyline class="cls-1" points="361.92 290.97 441.38 290.97 486.75 19.36 404.03 72.66"/>
  </g>
</svg>