<?xml version="1.0" encoding="UTF-8"?>
<svg id="Camada_2" data-name="Camada 2" xmlns="http://www.w3.org/2000/svg" viewBox="0 0 72.3 90.78">
  <defs>
    <style>
      .cls-1 {
        fill: #000;
      }

      .cls-1, .cls-2 {
        strokeWidth: 0px;
      }

      .cls-2 {
        fill: none;
      }
    </style>
  </defs>
  <g id="Camada_1-2" data-name="Camada 1">
    <g>
      <path class="cls-2" d="M19.62,68.84c-.69,0-1.34.27-1.83.76-.49.49-.76,1.14-.76,1.83,0,.93.49,1.78,1.34,2.27.77.44,1.77.44,2.53-.01.83-.49,1.31-1.34,1.31-2.26,0-.69-.27-1.34-.76-1.83-.49-.49-1.14-.76-1.83-.76Z"/>
      <path class="cls-1" d="M19.62,63.27c-2.18,0-4.23.85-5.77,2.39-1.54,1.54-2.39,3.59-2.39,5.77s.85,4.23,2.39,5.77,3.59,2.39,5.77,2.39,4.23-.85,5.77-2.39,2.39-3.59,2.39-5.77-.85-4.23-2.39-5.77c-1.54-1.54-3.59-2.39-5.77-2.39ZM20.9,73.69c-.77.45-1.76.46-2.53.01-.85-.49-1.34-1.34-1.34-2.27,0-.69.27-1.34.76-1.83.49-.49,1.14-.76,1.83-.76s1.34.27,1.83.76c.49.49.76,1.14.76,1.83,0,.92-.48,1.76-1.31,2.26Z"/>
      <path class="cls-1" d="M62,60.79h-26.09c-.67-.98-1.42-1.89-2.24-2.71-3.61-3.61-8.42-5.6-13.55-5.6s-9.93,1.99-13.55,5.6c-.26.26-.51.54-.75.82l-.13.15c-5.1,5.83-6.37,14.24-2.78,21.11,3.52,6.75,10.06,10.62,17.21,10.62,5.12,0,9.93-1.99,13.55-5.6.82-.82,1.57-1.73,2.24-2.7h8.78l2.55-2.55,3.92,3.92,4.24-4.24,4.2,4.2,12.71-12.71-10.3-10.3ZM55.39,71.33l-4.24,4.24-3.92-3.92-4.97,4.97h-9.71l-.77,1.4c-.62,1.12-1.37,2.14-2.25,3.02-2.51,2.51-5.85,3.89-9.41,3.89-4.54,0-8.72-2.25-11.28-6.21-3.2-4.97-2.49-11.52,1.4-15.97l.05-.05c.13-.16.27-.31.42-.46,2.51-2.51,5.85-3.89,9.41-3.89s6.9,1.38,9.41,3.89c.85.85,1.6,1.85,2.22,2.96l.83,1.46h27l4.45,4.45-4.43,4.43-4.2-4.2Z"/>
      <path class="cls-1" d="M69.9,25.9l-2.75-2.23s-.06-.07-.06-.12V7.95c0-2.81-2.28-5.1-5.1-5.1h-12.2c-1.94,0-3.66,1.13-4.47,2.83-.04.09-.16.12-.23.06l-5.49-4.46c-.94-.77-2.03-1.17-3.46-1.28h-.49c-1.14.12-2.22.56-3.11,1.28L2.15,25.9C.82,26.97.04,28.54,0,30.27c-.04,1.45.55,2.86,1.47,3.98l.62.77c.72.88,1.69,1.54,2.78,1.87.06.02.11.08.11.14v18.44c1.75-1.65,3.73-2.97,5.86-3.95v-16.05s.02-.09.06-.12l25.07-20.33c.06-.05.14-.05.2,0l25.01,20.33s.06.07.06.12v22.31h2.02l3.83,3.83v-24.57c0-.07.04-.12.11-.14,1.09-.34,2.04-.98,2.77-1.89l.63-.77c.92-1.13,1.5-2.53,1.46-3.99-.04-1.73-.82-3.3-2.14-4.37ZM50.86,9.01c0-.09.07-.16.16-.16h9.93c.09,0,.16.07.16.16v9.35c0,.13-.15.2-.25.12l-9.93-8.01s-.06-.07-.06-.12v-1.34ZM65.49,31.33l-.04-.03-.35.42-26.3-21.41c-1.53-1.24-3.91-1.25-5.45,0L6.64,31.34l-1.26-1.35,27.79-21.67c1.7-1.38,4.13-1.38,5.83,0l27.43,21.8-.5.6-.44.61Z"/>
    </g>
  </g>
</svg>