<?xml version="1.0" encoding="UTF-8"?>
<svg id="Camada_2" data-name="Camada 2" xmlns="http://www.w3.org/2000/svg" xmlns:xlink="http://www.w3.org/1999/xlink" viewBox="0 0 77.68 77.68">
  <defs>
    <style>
      .cls-1, .cls-2 {
        fill: #fff;
      }

      .cls-1, .cls-2, .cls-3 {
        strokeWidth: 0px;
      }

      .cls-1, .cls-3 {
        fill-rule: evenodd;
      }

      .cls-3 {
        fill: url(#Gradiente_sem_nome_3);
      }
    </style>
    <radialGradient id="Gradiente_sem_nome_3" data-name="Gradiente sem nome 3" cx="-106.54" cy="1653.16" fx="-106.54" fy="1653.16" r=".05" gradientTransform="translate(248010 3848225.13) scale(2327.75 -2327.75)" gradientUnits="userSpaceOnUse">
      <stop offset="0" stop-color="#f0811a"/>
      <stop offset=".19" stop-color="#ee731f"/>
      <stop offset=".32" stop-color="#eb6020"/>
      <stop offset=".48" stop-color="#da2a39"/>
      <stop offset="1" stop-color="#5f4596"/>
    </radialGradient>
  </defs>
  <g id="Camada_1-2" data-name="Camada 1">
    <g>
      <path class="cls-3" d="M77.68,19.42c0-10.72-8.7-19.42-19.42-19.42H19.42C8.7,0,0,8.7,0,19.42v38.84c0,10.72,8.7,19.42,19.42,19.42h38.84c10.72,0,19.42-8.7,19.42-19.42V19.42Z"/>
      <path class="cls-2" d="M50.33,11.67c8.12.08,15.6,7.05,15.68,15.68.03,7.66.03,15.32,0,22.98-.08,8.09-7.05,15.6-15.68,15.68-7.66.03-15.32.03-22.98,0-8.12-.08-15.6-7.05-15.68-15.68-.03-7.66-.03-15.32,0-22.98.07-8.13,7.03-15.6,15.68-15.68,7.66-.03,15.32-.03,22.98,0h0ZM27.45,15.34c-6.3.02-12.05,5.48-12.11,12.03-.02,7.64-.02,15.29,0,22.93.06,6.23,5.39,11.97,12.03,12.03,7.64.02,15.29.02,22.93,0,6.25-.06,11.97-5.39,12.03-12.03.02-7.64.02-15.29,0-22.93-.06-6.28-5.5-11.97-12.03-12.03-7.62-.02-15.23,0-22.85,0Z"/>
      <path class="cls-2" d="M38.93,25.24c6.28.06,12.14,4.91,13.29,11.12.82,4.43-.73,9.23-3.99,12.34-3.63,3.46-9.25,4.69-14.07,2.93-5.38-1.97-9.17-7.64-8.92-13.39.31-6.87,6.37-12.97,13.59-13h.09,0ZM38.78,28.92c-4.49.04-8.72,3.44-9.65,7.86-.94,4.47,1.63,9.43,5.85,11.21,4.61,1.95,10.56-.24,12.79-4.79,2.3-4.7.13-11.09-4.73-13.36-1.32-.62-2.8-.93-4.26-.92Z"/>
      <path class="cls-1" d="M56.31,24.18c0-.75-.3-1.47-.83-2s-1.25-.83-2-.83h-.18c-.75,0-1.47.3-2,.83-.53.53-.83,1.25-.83,2v.09c0,.77.31,1.51.85,2.06.54.55,1.29.85,2.06.85h0c1.61,0,2.91-1.3,2.91-2.91v-.09Z"/>
    </g>
  </g>
</svg>