<svg width="272" height="313" viewBox="0 0 272 313" fill="none" xmlns="http://www.w3.org/2000/svg">
<path d="M12.8168 292.189V289.273H26.5547V292.189H21.4336V306H17.9379V292.189H12.8168ZM32.6498 306.245C31.3593 306.245 30.2485 305.984 29.3174 305.461C28.3917 304.933 27.6784 304.187 27.1775 303.223C26.6765 302.254 26.426 301.108 26.426 299.784C26.426 298.494 26.6765 297.361 27.1775 296.387C27.6784 295.412 28.3836 294.652 29.2929 294.108C30.2077 293.563 31.2803 293.291 32.5109 293.291C33.3386 293.291 34.109 293.425 34.8224 293.691C35.5411 293.953 36.1673 294.348 36.7009 294.876C37.24 295.404 37.6592 296.068 37.9587 296.869C38.2582 297.664 38.4079 298.595 38.4079 299.662V300.618H27.8145V298.461H35.1327C35.1327 297.96 35.0238 297.517 34.806 297.13C34.5882 296.743 34.286 296.441 33.8994 296.223C33.5183 296 33.0745 295.888 32.5681 295.888C32.0399 295.888 31.5716 296.011 31.1633 296.256C30.7603 296.496 30.4445 296.82 30.2158 297.228C29.9871 297.631 29.8701 298.08 29.8646 298.576V300.626C29.8646 301.246 29.979 301.783 30.2077 302.235C30.4418 302.687 30.7712 303.035 31.1959 303.28C31.6206 303.525 32.1243 303.648 32.7069 303.648C33.0935 303.648 33.4475 303.593 33.7687 303.484C34.09 303.375 34.365 303.212 34.5937 302.994C34.8224 302.777 34.9966 302.51 35.1164 302.194L38.3344 302.406C38.1711 303.179 37.8362 303.855 37.3298 304.432C36.8289 305.004 36.1809 305.45 35.3859 305.771C34.5964 306.087 33.6843 306.245 32.6498 306.245ZM46.3469 306.245C45.0618 306.245 43.9565 305.973 43.0308 305.428C42.1106 304.878 41.4027 304.116 40.9072 303.141C40.4172 302.167 40.1721 301.045 40.1721 299.776C40.1721 298.491 40.4199 297.364 40.9154 296.395C41.4163 295.42 42.1269 294.661 43.0471 294.116C43.9674 293.566 45.0618 293.291 46.3305 293.291C47.425 293.291 48.3833 293.49 49.2055 293.887C50.0277 294.285 50.6784 294.843 51.1576 295.562C51.6367 296.281 51.9008 297.125 51.9498 298.094H48.6665C48.5739 297.468 48.3289 296.964 47.9314 296.583C47.5393 296.196 47.0248 296.003 46.3877 296.003C45.8486 296.003 45.3776 296.15 44.9747 296.444C44.5772 296.732 44.2668 297.154 44.0436 297.71C43.8203 298.265 43.7087 298.938 43.7087 299.727C43.7087 300.528 43.8176 301.208 44.0354 301.769C44.2587 302.33 44.5718 302.757 44.9747 303.051C45.3776 303.346 45.8486 303.493 46.3877 303.493C46.7852 303.493 47.1418 303.411 47.4577 303.248C47.7789 303.084 48.043 302.847 48.2499 302.537C48.4623 302.221 48.6011 301.843 48.6665 301.402H51.9498C51.8954 302.36 51.634 303.204 51.1657 303.934C50.7029 304.658 50.0631 305.224 49.2464 305.632C48.4296 306.041 47.4631 306.245 46.3469 306.245ZM57.657 298.747V306H54.1776V293.455H57.4936V295.668H57.6406C57.9183 294.938 58.3839 294.361 59.0373 293.936C59.6907 293.506 60.483 293.291 61.4141 293.291C62.2853 293.291 63.0449 293.482 63.6928 293.863C64.3408 294.244 64.8445 294.789 65.2038 295.496C65.5632 296.199 65.7429 297.037 65.7429 298.012V306H62.2635V298.633C62.2689 297.865 62.0729 297.266 61.6754 296.836C61.2779 296.4 60.7307 296.183 60.0337 296.183C59.5655 296.183 59.1516 296.283 58.7923 296.485C58.4383 296.686 58.1606 296.98 57.9592 297.367C57.7631 297.748 57.6624 298.208 57.657 298.747ZM74.1535 306.245C72.8848 306.245 71.7876 305.975 70.8619 305.436C69.9417 304.892 69.2311 304.135 68.7302 303.166C68.2293 302.191 67.9788 301.061 67.9788 299.776C67.9788 298.48 68.2293 297.348 68.7302 296.379C69.2311 295.404 69.9417 294.647 70.8619 294.108C71.7876 293.563 72.8848 293.291 74.1535 293.291C75.4222 293.291 76.5167 293.563 77.4369 294.108C78.3625 294.647 79.0758 295.404 79.5768 296.379C80.0777 297.348 80.3282 298.48 80.3282 299.776C80.3282 301.061 80.0777 302.191 79.5768 303.166C79.0758 304.135 78.3625 304.892 77.4369 305.436C76.5167 305.975 75.4222 306.245 74.1535 306.245ZM74.1698 303.55C74.747 303.55 75.2289 303.386 75.6155 303.06C76.0021 302.728 76.2934 302.276 76.4894 301.704C76.6909 301.132 76.7916 300.481 76.7916 299.752C76.7916 299.022 76.6909 298.371 76.4894 297.8C76.2934 297.228 76.0021 296.776 75.6155 296.444C75.2289 296.112 74.747 295.946 74.1698 295.946C73.5872 295.946 73.0972 296.112 72.6997 296.444C72.3076 296.776 72.0109 297.228 71.8094 297.8C71.6134 298.371 71.5154 299.022 71.5154 299.752C71.5154 300.481 71.6134 301.132 71.8094 301.704C72.0109 302.276 72.3076 302.728 72.6997 303.06C73.0972 303.386 73.5872 303.55 74.1698 303.55ZM86.07 289.273V306H82.5906V289.273H86.07ZM94.5256 306.245C93.2569 306.245 92.1597 305.975 91.234 305.436C90.3138 304.892 89.6032 304.135 89.1023 303.166C88.6013 302.191 88.3509 301.061 88.3509 299.776C88.3509 298.48 88.6013 297.348 89.1023 296.379C89.6032 295.404 90.3138 294.647 91.234 294.108C92.1597 293.563 93.2569 293.291 94.5256 293.291C95.7943 293.291 96.8887 293.563 97.8089 294.108C98.7346 294.647 99.4479 295.404 99.9489 296.379C100.45 297.348 100.7 298.48 100.7 299.776C100.7 301.061 100.45 302.191 99.9489 303.166C99.4479 304.135 98.7346 304.892 97.8089 305.436C96.8887 305.975 95.7943 306.245 94.5256 306.245ZM94.5419 303.55C95.1191 303.55 95.601 303.386 95.9876 303.06C96.3742 302.728 96.6655 302.276 96.8615 301.704C97.063 301.132 97.1637 300.481 97.1637 299.752C97.1637 299.022 97.063 298.371 96.8615 297.8C96.6655 297.228 96.3742 296.776 95.9876 296.444C95.601 296.112 95.1191 295.946 94.5419 295.946C93.9593 295.946 93.4692 296.112 93.0717 296.444C92.6797 296.776 92.3829 297.228 92.1815 297.8C91.9854 298.371 91.8874 299.022 91.8874 299.752C91.8874 300.481 91.9854 301.132 92.1815 301.704C92.3829 302.276 92.6797 302.728 93.0717 303.06C93.4692 303.386 93.9593 303.55 94.5419 303.55ZM108.615 310.966C107.488 310.966 106.521 310.811 105.715 310.5C104.915 310.195 104.278 309.779 103.804 309.251C103.33 308.723 103.023 308.129 102.881 307.47L106.099 307.037C106.197 307.288 106.352 307.522 106.565 307.74C106.777 307.958 107.057 308.132 107.406 308.262C107.76 308.399 108.19 308.467 108.696 308.467C109.453 308.467 110.077 308.281 110.567 307.911C111.062 307.546 111.31 306.934 111.31 306.074V303.778H111.163C111.011 304.127 110.782 304.456 110.477 304.767C110.172 305.077 109.78 305.33 109.301 305.526C108.822 305.722 108.25 305.82 107.586 305.82C106.644 305.82 105.786 305.603 105.013 305.167C104.245 304.726 103.632 304.053 103.175 303.15C102.723 302.24 102.497 301.091 102.497 299.703C102.497 298.282 102.729 297.095 103.191 296.142C103.654 295.189 104.27 294.475 105.037 294.002C105.81 293.528 106.657 293.291 107.577 293.291C108.28 293.291 108.868 293.411 109.342 293.651C109.815 293.885 110.196 294.179 110.485 294.533C110.779 294.881 111.005 295.224 111.163 295.562H111.294V293.455H114.749V306.123C114.749 307.19 114.487 308.083 113.964 308.801C113.442 309.52 112.718 310.059 111.792 310.419C110.872 310.783 109.813 310.966 108.615 310.966ZM108.688 303.207C109.249 303.207 109.723 303.068 110.109 302.79C110.501 302.507 110.801 302.104 111.008 301.581C111.22 301.053 111.326 300.422 111.326 299.686C111.326 298.951 111.223 298.314 111.016 297.775C110.809 297.231 110.51 296.809 110.118 296.509C109.725 296.21 109.249 296.06 108.688 296.06C108.116 296.06 107.635 296.215 107.243 296.526C106.85 296.83 106.554 297.255 106.352 297.8C106.151 298.344 106.05 298.973 106.05 299.686C106.05 300.411 106.151 301.037 106.352 301.565C106.559 302.088 106.856 302.493 107.243 302.782C107.635 303.065 108.116 303.207 108.688 303.207ZM117.517 306V293.455H120.997V306H117.517ZM119.265 291.837C118.748 291.837 118.304 291.666 117.934 291.323C117.569 290.974 117.387 290.558 117.387 290.073C117.387 289.594 117.569 289.183 117.934 288.84C118.304 288.491 118.748 288.317 119.265 288.317C119.783 288.317 120.224 288.491 120.588 288.84C120.959 289.183 121.144 289.594 121.144 290.073C121.144 290.558 120.959 290.974 120.588 291.323C120.224 291.666 119.783 291.837 119.265 291.837ZM127.361 306.237C126.561 306.237 125.848 306.098 125.222 305.82C124.595 305.537 124.1 305.121 123.735 304.571C123.376 304.015 123.196 303.324 123.196 302.496C123.196 301.799 123.324 301.214 123.58 300.74C123.836 300.266 124.184 299.885 124.625 299.597C125.066 299.308 125.567 299.09 126.128 298.943C126.694 298.796 127.288 298.693 127.909 298.633C128.638 298.557 129.226 298.486 129.673 298.42C130.119 298.35 130.443 298.246 130.645 298.11C130.846 297.974 130.947 297.772 130.947 297.506V297.457C130.947 296.939 130.784 296.539 130.457 296.256C130.136 295.973 129.678 295.831 129.085 295.831C128.459 295.831 127.96 295.97 127.59 296.248C127.22 296.52 126.975 296.863 126.855 297.277L123.637 297.016C123.8 296.253 124.122 295.594 124.601 295.039C125.08 294.478 125.698 294.048 126.455 293.749C127.217 293.444 128.099 293.291 129.101 293.291C129.798 293.291 130.465 293.373 131.102 293.536C131.745 293.7 132.314 293.953 132.809 294.296C133.31 294.639 133.705 295.08 133.994 295.619C134.282 296.153 134.426 296.792 134.426 297.538V306H131.127V304.26H131.029C130.827 304.652 130.558 304.998 130.22 305.298C129.882 305.592 129.477 305.823 129.003 305.992C128.529 306.155 127.982 306.237 127.361 306.237ZM128.358 303.836C128.87 303.836 129.322 303.735 129.714 303.533C130.106 303.326 130.413 303.049 130.637 302.7C130.86 302.352 130.972 301.957 130.972 301.516V300.185C130.863 300.255 130.713 300.321 130.522 300.381C130.337 300.435 130.128 300.487 129.893 300.536C129.659 300.579 129.425 300.62 129.191 300.658C128.957 300.691 128.744 300.721 128.554 300.748C128.146 300.808 127.789 300.903 127.484 301.034C127.179 301.165 126.942 301.342 126.773 301.565C126.605 301.783 126.52 302.055 126.52 302.382C126.52 302.855 126.692 303.218 127.035 303.468C127.383 303.713 127.824 303.836 128.358 303.836ZM146.051 289.273V306H142.514V289.273H146.051ZM148.895 306V293.455H152.211V295.668H152.358C152.62 294.933 153.055 294.353 153.665 293.928C154.275 293.504 155.005 293.291 155.854 293.291C156.714 293.291 157.447 293.506 158.051 293.936C158.656 294.361 159.059 294.938 159.26 295.668H159.391C159.647 294.949 160.109 294.375 160.779 293.945C161.454 293.509 162.252 293.291 163.172 293.291C164.343 293.291 165.293 293.664 166.023 294.41C166.758 295.151 167.125 296.202 167.125 297.563V306H163.654V298.249C163.654 297.552 163.469 297.029 163.099 296.681C162.729 296.332 162.266 296.158 161.71 296.158C161.079 296.158 160.586 296.359 160.232 296.762C159.878 297.16 159.701 297.685 159.701 298.339V306H156.328V298.175C156.328 297.56 156.151 297.07 155.797 296.705C155.448 296.34 154.988 296.158 154.417 296.158C154.03 296.158 153.682 296.256 153.371 296.452C153.066 296.643 152.824 296.912 152.644 297.261C152.465 297.604 152.375 298.007 152.375 298.469V306H148.895ZM175.542 306.245C174.273 306.245 173.176 305.975 172.251 305.436C171.33 304.892 170.62 304.135 170.119 303.166C169.618 302.191 169.367 301.061 169.367 299.776C169.367 298.48 169.618 297.348 170.119 296.379C170.62 295.404 171.33 294.647 172.251 294.108C173.176 293.563 174.273 293.291 175.542 293.291C176.811 293.291 177.905 293.563 178.826 294.108C179.751 294.647 180.465 295.404 180.965 296.379C181.466 297.348 181.717 298.48 181.717 299.776C181.717 301.061 181.466 302.191 180.965 303.166C180.465 304.135 179.751 304.892 178.826 305.436C177.905 305.975 176.811 306.245 175.542 306.245ZM175.559 303.55C176.136 303.55 176.618 303.386 177.004 303.06C177.391 302.728 177.682 302.276 177.878 301.704C178.08 301.132 178.18 300.481 178.18 299.752C178.18 299.022 178.08 298.371 177.878 297.8C177.682 297.228 177.391 296.776 177.004 296.444C176.618 296.112 176.136 295.946 175.559 295.946C174.976 295.946 174.486 296.112 174.088 296.444C173.696 296.776 173.4 297.228 173.198 297.8C173.002 298.371 172.904 299.022 172.904 299.752C172.904 300.481 173.002 301.132 173.198 301.704C173.4 302.276 173.696 302.728 174.088 303.06C174.486 303.386 174.976 303.55 175.559 303.55ZM184.045 306V289.273H187.524V295.562H187.63C187.783 295.224 188.003 294.881 188.292 294.533C188.586 294.179 188.967 293.885 189.435 293.651C189.909 293.411 190.497 293.291 191.199 293.291C192.114 293.291 192.958 293.531 193.731 294.01C194.505 294.484 195.123 295.2 195.585 296.158C196.048 297.111 196.28 298.306 196.28 299.744C196.28 301.143 196.054 302.325 195.602 303.288C195.155 304.247 194.545 304.974 193.772 305.469C193.005 305.959 192.144 306.204 191.191 306.204C190.516 306.204 189.942 306.093 189.468 305.869C189 305.646 188.616 305.366 188.316 305.028C188.017 304.685 187.788 304.339 187.63 303.991H187.475V306H184.045ZM187.451 299.727C187.451 300.473 187.554 301.124 187.761 301.679C187.968 302.235 188.267 302.668 188.659 302.978C189.051 303.283 189.528 303.435 190.089 303.435C190.655 303.435 191.134 303.28 191.526 302.97C191.918 302.654 192.215 302.218 192.416 301.663C192.623 301.102 192.727 300.457 192.727 299.727C192.727 299.003 192.626 298.366 192.425 297.816C192.223 297.266 191.926 296.836 191.534 296.526C191.142 296.215 190.66 296.06 190.089 296.06C189.522 296.06 189.043 296.21 188.651 296.509C188.265 296.809 187.968 297.233 187.761 297.783C187.554 298.333 187.451 298.981 187.451 299.727ZM198.601 306V293.455H202.081V306H198.601ZM200.349 291.837C199.832 291.837 199.388 291.666 199.018 291.323C198.653 290.974 198.471 290.558 198.471 290.073C198.471 289.594 198.653 289.183 199.018 288.84C199.388 288.491 199.832 288.317 200.349 288.317C200.867 288.317 201.308 288.491 201.672 288.84C202.043 289.183 202.228 289.594 202.228 290.073C202.228 290.558 202.043 290.974 201.672 291.323C201.308 291.666 200.867 291.837 200.349 291.837ZM208.347 289.273V306H204.868V289.273H208.347ZM211.135 306V293.455H214.614V306H211.135ZM212.882 291.837C212.365 291.837 211.921 291.666 211.551 291.323C211.186 290.974 211.004 290.558 211.004 290.073C211.004 289.594 211.186 289.183 211.551 288.84C211.921 288.491 212.365 288.317 212.882 288.317C213.4 288.317 213.841 288.491 214.206 288.84C214.576 289.183 214.761 289.594 214.761 290.073C214.761 290.558 214.576 290.974 214.206 291.323C213.841 291.666 213.4 291.837 212.882 291.837ZM220.979 306.237C220.178 306.237 219.465 306.098 218.839 305.82C218.213 305.537 217.717 305.121 217.352 304.571C216.993 304.015 216.813 303.324 216.813 302.496C216.813 301.799 216.941 301.214 217.197 300.74C217.453 300.266 217.801 299.885 218.242 299.597C218.684 299.308 219.184 299.09 219.745 298.943C220.312 298.796 220.905 298.693 221.526 298.633C222.255 298.557 222.844 298.486 223.29 298.42C223.737 298.35 224.061 298.246 224.262 298.11C224.463 297.974 224.564 297.772 224.564 297.506V297.457C224.564 296.939 224.401 296.539 224.074 296.256C223.753 295.973 223.295 295.831 222.702 295.831C222.076 295.831 221.578 295.97 221.207 296.248C220.837 296.52 220.592 296.863 220.472 297.277L217.254 297.016C217.418 296.253 217.739 295.594 218.218 295.039C218.697 294.478 219.315 294.048 220.072 293.749C220.834 293.444 221.716 293.291 222.718 293.291C223.415 293.291 224.082 293.373 224.719 293.536C225.362 293.7 225.931 293.953 226.426 294.296C226.927 294.639 227.322 295.08 227.611 295.619C227.899 296.153 228.044 296.792 228.044 297.538V306H224.744V304.26H224.646C224.444 304.652 224.175 304.998 223.837 305.298C223.5 305.592 223.094 305.823 222.62 305.992C222.147 306.155 221.599 306.237 220.979 306.237ZM221.975 303.836C222.487 303.836 222.939 303.735 223.331 303.533C223.723 303.326 224.031 303.049 224.254 302.7C224.477 302.352 224.589 301.957 224.589 301.516V300.185C224.48 300.255 224.33 300.321 224.139 300.381C223.954 300.435 223.745 300.487 223.511 300.536C223.276 300.579 223.042 300.62 222.808 300.658C222.574 300.691 222.362 300.721 222.171 300.748C221.763 300.808 221.406 300.903 221.101 301.034C220.796 301.165 220.559 301.342 220.391 301.565C220.222 301.783 220.137 302.055 220.137 302.382C220.137 302.855 220.309 303.218 220.652 303.468C221 303.713 221.441 303.836 221.975 303.836ZM221.599 291.837L223.331 288.121H226.549L224.058 291.837H221.599ZM230.743 306V293.455H234.116V295.643H234.247C234.476 294.865 234.859 294.277 235.399 293.879C235.938 293.476 236.558 293.275 237.261 293.275C237.435 293.275 237.623 293.286 237.824 293.308C238.026 293.329 238.203 293.359 238.355 293.397V296.485C238.192 296.436 237.966 296.392 237.677 296.354C237.389 296.316 237.125 296.297 236.885 296.297C236.373 296.297 235.916 296.408 235.513 296.632C235.115 296.85 234.8 297.154 234.565 297.547C234.337 297.939 234.222 298.391 234.222 298.902V306H230.743ZM240.154 306V293.455H243.634V306H240.154ZM241.902 291.837C241.385 291.837 240.941 291.666 240.571 291.323C240.206 290.974 240.023 290.558 240.023 290.073C240.023 289.594 240.206 289.183 240.571 288.84C240.941 288.491 241.385 288.317 241.902 288.317C242.419 288.317 242.86 288.491 243.225 288.84C243.595 289.183 243.781 289.594 243.781 290.073C243.781 290.558 243.595 290.974 243.225 291.323C242.86 291.666 242.419 291.837 241.902 291.837ZM249.998 306.237C249.198 306.237 248.484 306.098 247.858 305.82C247.232 305.537 246.737 305.121 246.372 304.571C246.012 304.015 245.833 303.324 245.833 302.496C245.833 301.799 245.961 301.214 246.217 300.74C246.472 300.266 246.821 299.885 247.262 299.597C247.703 299.308 248.204 299.09 248.765 298.943C249.331 298.796 249.925 298.693 250.545 298.633C251.275 298.557 251.863 298.486 252.31 298.42C252.756 298.35 253.08 298.246 253.282 298.11C253.483 297.974 253.584 297.772 253.584 297.506V297.457C253.584 296.939 253.42 296.539 253.094 296.256C252.772 295.973 252.315 295.831 251.722 295.831C251.095 295.831 250.597 295.97 250.227 296.248C249.857 296.52 249.612 296.863 249.492 297.277L246.274 297.016C246.437 296.253 246.758 295.594 247.237 295.039C247.717 294.478 248.335 294.048 249.092 293.749C249.854 293.444 250.736 293.291 251.738 293.291C252.435 293.291 253.102 293.373 253.739 293.536C254.381 293.7 254.95 293.953 255.446 294.296C255.947 294.639 256.342 295.08 256.63 295.619C256.919 296.153 257.063 296.792 257.063 297.538V306H253.763V304.26H253.665C253.464 304.652 253.194 304.998 252.857 305.298C252.519 305.592 252.114 305.823 251.64 305.992C251.166 306.155 250.619 306.237 249.998 306.237ZM250.995 303.836C251.506 303.836 251.958 303.735 252.35 303.533C252.742 303.326 253.05 303.049 253.273 302.7C253.497 302.352 253.608 301.957 253.608 301.516V300.185C253.499 300.255 253.35 300.321 253.159 300.381C252.974 300.435 252.764 300.487 252.53 300.536C252.296 300.579 252.062 300.62 251.828 300.658C251.594 300.691 251.381 300.721 251.191 300.748C250.782 300.808 250.426 300.903 250.121 301.034C249.816 301.165 249.579 301.342 249.41 301.565C249.241 301.783 249.157 302.055 249.157 302.382C249.157 302.855 249.328 303.218 249.671 303.468C250.02 303.713 250.461 303.836 250.995 303.836Z" fill="white"/>
<path fill-rule="evenodd" clipRule="evenodd" d="M132.533 12.001C84.0194 12.001 44.5488 52.5671 44.5488 102.429H44.547C44.547 131.902 58.3426 158.126 79.6409 174.645L74.9665 185.573C70.4722 182.276 66.2464 178.599 62.3321 174.579C43.5807 155.307 33.2535 129.684 33.2535 102.429C33.2535 75.1746 43.5807 49.5512 62.3321 30.2797C76.6256 15.7056 94.7655 5.9042 114.433 2.12857C134.1 -1.64705 154.401 0.774622 172.741 9.08401L167.25 19.3461C156.271 14.4851 144.462 11.9867 132.533 12.001ZM187.897 23.935C188.531 23.0157 189.011 22.3325 189.338 21.8855L189.342 21.8893C189.639 21.4827 190.104 20.8884 190.738 20.1064C191.373 19.3244 191.838 18.7301 192.134 18.3235C192.195 18.24 192.172 18.1569 192.065 18.0738C191.95 17.9852 191.777 17.8632 191.545 17.7009C191.313 17.5385 191.139 17.4137 191.025 17.3255C190.91 17.2373 190.741 17.097 190.518 16.9089C190.296 16.7207 190.127 16.5814 190.012 16.4932C189.997 16.4772 189.979 16.4651 189.959 16.4577C189.939 16.4503 189.917 16.4478 189.896 16.4504C189.875 16.453 189.855 16.4607 189.837 16.4728C189.819 16.485 189.804 16.5013 189.793 16.5204C189.497 16.9261 189.066 17.546 188.499 18.3802C187.931 19.2145 187.5 19.8349 187.204 20.2415C186.852 20.7238 186.082 21.7091 184.893 23.1974C184.329 23.9024 184.068 24.2237 184.112 24.1611C184.079 24.2056 184.063 24.2623 184.069 24.3187C184.075 24.3751 184.102 24.4267 184.145 24.4624C184.457 24.7677 184.791 25.0486 185.143 25.3027C185.462 25.5547 185.796 25.7874 186.141 25.9999C186.193 26.0326 186.247 26.0621 186.302 26.0881C186.349 26.0947 186.4 26.0594 186.456 25.9844C186.783 25.5374 187.263 24.8543 187.897 23.935ZM85.9512 277.64C81.5688 277.71 77.3248 276.041 74.0796 272.971C70.725 269.859 69.0479 265.397 69.0482 259.585C69.0482 252.85 70.9231 247.131 74.6731 242.428C78.423 237.725 83.3225 235.374 89.3716 235.374C94.2145 235.374 98.1908 237.019 101.3 240.308C104.41 243.597 105.965 247.902 105.964 253.223C105.964 260.017 104.118 265.785 100.426 270.527C96.7336 275.269 91.9095 277.64 85.9535 277.64L85.9512 277.64ZM86.0381 268.274C86.9555 268.31 87.8649 268.084 88.6673 267.619C89.4697 267.154 90.1344 266.469 90.5891 265.638C91.6254 263.881 92.445 261.304 93.0481 257.906C93.6512 254.508 93.9527 252.211 93.9527 251.014C93.9527 248.952 93.4957 247.391 92.5816 246.331C92.125 245.805 91.5629 245.39 90.9352 245.115C90.3075 244.84 89.6295 244.712 88.9492 244.741C86.0674 244.741 84.0412 246.832 82.8704 251.014C81.6997 255.196 81.1155 258.898 81.1179 262.118C81.1179 266.222 82.7574 268.274 86.0363 268.274H86.0381ZM18.317 236.405L11.873 276.609H0.897461L7.34233 236.405H18.317ZM171.26 276.609L172.786 266.948L158.157 266.949L163.053 236.405H151.332L144.887 276.609H171.26ZM192.806 236.405L186.363 276.609H175.386L181.831 236.405H192.806ZM135.305 256.109C137.602 255.642 139.699 254.431 141.297 252.649C142.783 250.937 143.582 248.697 143.53 246.39C143.55 244.328 142.923 242.315 141.745 240.659C140.566 239.003 138.9 237.793 137.001 237.215C134.671 236.616 132.276 236.344 129.878 236.405H113.935L110.124 260.173H126.14C127.611 260.173 128.72 260.522 129.466 261.219C129.834 261.565 130.126 261.991 130.319 262.467C130.512 262.943 130.603 263.457 130.584 263.973C130.57 264.931 130.206 265.848 129.566 266.536C128.887 267.321 127.652 267.714 125.861 267.714H120.101L118.595 276.609H128.521C133.232 276.609 136.6 275.431 138.627 273.074C140.608 270.839 141.694 267.899 141.665 264.857C141.665 260.576 139.545 257.661 135.305 256.109ZM122.652 251.75H127.07L127.07 251.75C130.6 251.75 132.366 250.533 132.366 248.098C132.366 245.957 130.968 244.887 128.173 244.887H123.752L122.652 251.75ZM232.23 236.405L225.785 276.609H217.21L209.809 261.172C207.794 256.949 206.52 253.611 205.989 251.157C206.026 251.746 206.045 252.208 206.045 252.541C206.011 254.004 205.869 255.461 205.621 256.901L202.452 276.607H193.052L199.497 236.403H209.889L214.127 245.711C217.066 252.152 218.979 256.914 219.865 259.996C219.809 259.191 219.781 258.592 219.781 258.198C219.895 256.003 220.15 253.819 220.543 251.659L223.001 236.404L232.23 236.405ZM260.986 236.405H272L259.024 251.646L250.656 260.006L244.802 266.806L243.231 276.609H232.485L238.929 236.405H249.675L246.715 254.874C247.413 253.22 248.353 251.687 249.5 250.331C250.734 248.831 252.73 246.342 255.488 242.862L260.986 236.405ZM251.084 261.641L255.018 276.608H266.404L259.494 253.238L251.084 261.641ZM51.8487 236.469H65.4183H67.4743V236.472L55.9111 244.05L55.8778 244.072C55.7134 244.518 55.5022 245.105 55.2429 245.838C55.1492 246.103 55.0494 246.387 54.9434 246.689C54.0191 249.261 53.1704 251.46 52.3971 253.286L42.4108 276.673H35.4571L32.8086 253.286C32.5639 251.225 32.3948 249.026 32.3011 246.689C32.2261 245.295 32.151 244.215 32.076 243.449C31.5485 249.006 30.9651 253.797 30.3257 257.822L27.3052 276.673H18.5649L24.9962 236.469H40.5169L42.5882 254.259C42.7581 255.712 42.9092 256.743 43.0416 257.351C43.3632 256.295 43.7511 255.262 44.2029 254.259L51.8487 236.469ZM50.197 276.672H61.0204L67.2 238.122L55.9327 245.686L50.197 276.672ZM212.284 57.775C212.262 57.7941 212.236 57.8078 212.209 57.8148C212.181 57.8219 212.152 57.8222 212.124 57.8156C212.096 57.8091 212.07 57.7959 212.048 57.7771C212.026 57.7583 212.009 57.7344 211.997 57.7074L210.762 55.528C210.695 55.41 210.731 55.3087 210.87 55.224C211.273 54.9825 211.887 54.636 212.711 54.1847C213.535 53.7333 214.148 53.3861 214.552 53.1431C214.667 53.0746 214.718 53.0187 214.706 52.977C213.929 53.0246 213.155 53.1186 212.388 53.2585C211.509 53.3883 210.633 53.5174 209.76 53.6456C209.717 53.6561 209.672 53.6564 209.629 53.6465C209.586 53.6366 209.545 53.6167 209.511 53.5883C209.495 53.57 209.447 53.4898 209.365 53.3467C209.244 53.1328 209.212 52.9803 209.268 52.892C209.582 52.4078 210.055 51.7344 210.689 50.8717C211.357 49.955 211.834 49.2824 212.12 48.8542C212.138 48.8262 212.15 48.7941 212.155 48.7604C212.084 48.7579 212.014 48.7793 211.956 48.8214C211.566 49.0563 210.985 49.4177 210.213 49.9057C209.442 50.3936 208.86 50.7556 208.47 50.9914C208.33 51.0743 208.228 51.0586 208.162 50.9444L206.997 48.8885C206.952 48.8064 206.936 48.7477 206.952 48.7144C206.981 48.6674 207.023 48.6301 207.072 48.607C207.507 48.3458 208.173 47.9756 209.07 47.4964C209.966 47.0172 210.632 46.647 211.068 46.3858C211.53 46.1093 212.387 45.5691 213.638 44.7652C213.968 44.5625 214.451 44.2497 215.086 43.8269L215.184 43.7593C215.262 43.7073 215.351 43.7699 215.451 43.947C215.578 44.1728 215.777 44.507 216.047 44.9496C216.317 45.3922 216.516 45.7265 216.644 45.9523C216.669 45.9992 216.621 46.1104 216.5 46.2934L213.68 50.3894C213.492 50.6709 213.423 50.8553 213.472 50.9426C213.498 50.9895 213.702 50.9933 214.085 50.9623C215.158 50.875 216.769 50.7321 218.919 50.5334C219.114 50.5104 219.234 50.5386 219.282 50.6222C219.348 50.7404 219.445 50.9234 219.568 51.1702C219.692 51.4169 219.789 51.6037 219.86 51.7257C219.918 51.8284 220.016 51.9805 220.157 52.1789C220.297 52.3774 220.395 52.5284 220.453 52.6321C220.523 52.7541 220.51 52.8452 220.415 52.9024C219.944 53.1839 219.23 53.5877 218.274 54.1138C217.318 54.6399 216.604 55.0439 216.133 55.3257C215.698 55.5857 215.056 55.9951 214.206 56.5541C213.357 57.1131 212.717 57.5208 212.286 57.7773L212.284 57.775ZM223.05 95.6186C224.111 96.4725 225.451 96.8598 226.783 96.6977L226.782 96.6992C228.12 96.611 229.372 95.9802 230.269 94.942C230.702 94.4289 231.03 93.8294 231.233 93.1801C231.436 92.5307 231.511 91.8451 231.452 91.1649C231.393 90.4846 231.202 89.824 230.89 89.2231C230.578 88.6222 230.153 88.0937 229.639 87.6696C228.578 86.8125 227.238 86.4223 225.905 86.5825C224.571 86.6655 223.323 87.2935 222.431 88.3302C222.001 88.846 221.676 89.4466 221.474 90.0963C221.273 90.7459 221.198 91.4312 221.256 92.1113C221.314 92.7915 221.503 93.4525 221.811 94.055C222.119 94.6576 222.54 95.1894 223.05 95.6186ZM228.266 93.2018C227.813 93.6802 227.206 93.9674 226.562 94.0084L226.56 94.0079C225.923 94.0745 225.286 93.8937 224.77 93.5002C224.511 93.3132 224.294 93.07 224.134 92.7874C223.973 92.5048 223.874 92.1895 223.841 91.863C223.809 91.5365 223.845 91.2066 223.947 90.8959C224.048 90.5852 224.213 90.301 224.43 90.0629C224.894 89.6007 225.498 89.3205 226.138 89.2698C226.778 89.2192 227.416 89.4013 227.942 89.7852C228.203 89.9681 228.423 90.2089 228.584 90.4905C228.746 90.772 228.846 91.0873 228.877 91.4138C228.908 91.7403 228.869 92.0699 228.764 92.379C228.658 92.6881 228.488 92.9691 228.266 93.2018ZM218.319 136.416C217.574 136.18 216.949 135.647 216.581 134.931C216.172 134.128 216.215 132.988 216.711 131.512C216.743 131.419 216.786 131.294 216.842 131.137L216.881 131.029C216.921 130.909 216.955 130.807 216.984 130.722L217.041 130.551C217.343 129.553 217.708 128.577 218.133 127.629C218.154 127.576 218.194 127.534 218.245 127.511C218.295 127.489 218.352 127.487 218.403 127.507C218.87 127.673 219.568 127.952 220.497 128.343C221.427 128.734 222.127 129.015 222.598 129.185C223.105 129.364 224.066 129.675 225.48 130.117C225.843 130.23 226.388 130.396 227.117 130.614L227.211 130.641C227.295 130.666 227.321 130.754 227.29 130.907C227.258 131.06 227.093 131.581 226.795 132.474C226.314 133.907 226.029 134.742 225.939 134.981C225.673 135.836 225.211 136.611 224.593 137.239C223.945 137.787 223.127 137.886 222.14 137.535C221.855 137.425 221.601 137.242 221.403 137.002C221.225 136.796 221.07 136.57 220.941 136.327C220.874 136.221 220.818 136.108 220.775 135.989C220.745 135.979 220.677 136.019 220.572 136.113C220.266 136.376 219.888 136.532 219.491 136.558C219.096 136.6 218.697 136.552 218.321 136.417L218.319 136.416ZM219.252 133.733C219.415 133.808 219.597 133.827 219.771 133.787C219.945 133.747 220.102 133.65 220.22 133.511C220.439 133.21 220.603 132.87 220.705 132.508C220.836 132.202 220.922 131.876 220.959 131.542C220.444 131.245 219.88 131.05 219.296 130.968C219.107 131.252 218.969 131.57 218.891 131.907C218.758 132.245 218.68 132.604 218.659 132.969C218.663 133.147 218.724 133.318 218.832 133.456C218.94 133.593 219.088 133.69 219.254 133.731L219.252 133.733ZM222.983 134.829C223.151 134.898 223.336 134.904 223.508 134.847C223.68 134.79 223.827 134.672 223.924 134.514C224.121 134.195 224.274 133.848 224.381 133.485C224.543 133 224.589 132.745 224.52 132.722C224.437 132.691 224.313 132.639 224.151 132.563C223.989 132.488 223.865 132.436 223.783 132.406C223.346 132.252 223.088 132.203 223.01 132.261C222.854 132.518 222.737 132.799 222.664 133.095C222.34 134.059 222.446 134.638 222.983 134.831L222.983 134.829ZM196.83 165.06C196.387 165.532 196.031 165.918 195.763 166.219H195.761C195.694 166.288 195.634 166.364 195.581 166.445C195.566 166.49 195.564 166.538 195.575 166.584C195.586 166.63 195.609 166.672 195.641 166.705C196.056 167.267 196.522 167.786 197.034 168.253C197.112 168.326 197.193 168.316 197.278 168.222C197.558 167.907 197.962 167.42 198.489 166.759C199.016 166.099 199.42 165.611 199.701 165.296C199.777 165.209 199.819 165.162 199.822 165.159C199.842 165.141 199.867 165.13 199.894 165.128C199.921 165.127 199.947 165.135 199.969 165.152C200.011 165.188 200.056 165.221 200.102 165.258C200.305 165.441 200.626 165.74 201.062 166.149L202.409 167.423C203.648 168.684 204.57 169.636 205.173 170.28L205.236 170.348C205.296 170.412 205.353 170.418 205.398 170.365C205.501 170.249 205.647 170.073 205.838 169.834C206.029 169.594 206.175 169.415 206.278 169.301C206.369 169.2 206.511 169.048 206.707 168.849C206.903 168.651 207.047 168.499 207.141 168.394C207.234 168.288 207.244 168.2 207.169 168.13C206.773 167.758 206.169 167.214 205.358 166.498C204.546 165.781 203.942 165.237 203.547 164.865C203.176 164.517 202.624 163.989 201.893 163.278C201.162 162.568 200.611 162.04 200.239 161.692C200.22 161.672 200.197 161.656 200.171 161.645C200.146 161.634 200.119 161.629 200.092 161.629C200.064 161.629 200.037 161.635 200.012 161.646C199.987 161.657 199.964 161.674 199.945 161.694C199.666 161.972 199.456 162.193 199.321 162.354L197.903 163.907L196.83 165.06ZM171.157 190.577C170.92 190.073 170.551 189.32 170.05 188.319C169.549 187.317 169.179 186.564 168.943 186.06C168.903 185.974 168.898 185.912 168.924 185.872C168.972 185.834 169.022 185.798 169.074 185.766C169.417 185.548 169.771 185.352 170.135 185.177C170.518 184.972 170.914 184.796 171.321 184.651C171.371 184.629 171.428 184.628 171.479 184.648C171.53 184.669 171.572 184.708 171.595 184.76C171.563 184.692 171.721 185.078 172.07 185.918C172.808 187.687 173.305 188.843 173.56 189.386C173.775 189.843 174.112 190.522 174.571 191.423C175.03 192.325 175.367 193.004 175.582 193.461C175.594 193.479 175.601 193.5 175.604 193.522C175.605 193.533 175.605 193.543 175.604 193.554C175.603 193.559 175.602 193.564 175.601 193.569C175.6 193.572 175.6 193.576 175.599 193.579L175.596 193.588C175.592 193.598 175.588 193.607 175.582 193.616C175.576 193.625 175.569 193.634 175.56 193.642C175.553 193.649 175.544 193.655 175.535 193.661C175.529 193.665 175.522 193.668 175.515 193.67L175.508 193.673L175.505 193.674C175.376 193.736 175.178 193.827 174.912 193.943C174.647 194.06 174.45 194.148 174.32 194.214C174.19 194.279 174.005 194.377 173.758 194.515C173.663 194.568 173.576 194.616 173.499 194.658C173.376 194.725 173.275 194.779 173.196 194.819C173.075 194.878 172.993 194.861 172.949 194.767C172.733 194.31 172.435 193.612 172.053 192.672C171.671 191.733 171.372 191.035 171.158 190.577L171.157 190.577ZM131.051 201.981C131.062 203.064 131.081 203.878 131.108 204.42L131.108 204.423C131.116 204.568 131.163 204.641 131.251 204.636C131.528 204.619 131.945 204.584 132.502 204.532C133.06 204.48 133.477 204.446 133.753 204.431C133.85 204.426 133.894 204.335 133.885 204.161C133.86 203.657 133.795 202.906 133.692 201.909C133.588 200.911 133.524 200.163 133.498 199.665C133.48 199.294 133.501 199.109 133.561 199.106C133.644 199.101 133.747 199.169 133.869 199.31C134.367 199.918 134.74 200.378 134.987 200.691L137.752 204.19C137.876 204.343 137.965 204.42 138.02 204.418C138.204 204.402 138.385 204.37 138.564 204.324C138.834 204.257 139.014 204.218 139.104 204.202C139.495 204.142 139.824 204.106 140.091 204.093C140.271 204.083 140.359 204.026 140.353 203.922C140.326 203.382 140.263 202.569 140.164 201.486C140.065 200.402 140.002 199.587 139.975 199.042C139.949 198.525 139.934 197.748 139.93 196.712C139.926 195.676 139.911 194.902 139.885 194.39C139.878 194.242 139.807 194.172 139.673 194.18L137.279 194.307C137.154 194.315 137.096 194.401 137.104 194.567C137.132 195.117 137.189 195.942 137.274 197.04C137.36 198.137 137.417 198.962 137.444 199.512C137.448 199.541 137.446 199.57 137.438 199.598C137.435 199.609 137.43 199.62 137.425 199.63C137.418 199.645 137.408 199.659 137.397 199.672C137.356 199.654 137.319 199.627 137.289 199.592C136.595 198.769 136.078 198.144 135.737 197.72C134.494 196.203 133.695 195.224 133.34 194.781C133.217 194.632 133.113 194.558 133.031 194.561C132.912 194.567 132.73 194.568 132.49 194.561C132.251 194.555 132.07 194.555 131.95 194.561C131.839 194.568 131.672 194.578 131.449 194.602C131.225 194.625 131.058 194.638 130.948 194.643C130.813 194.651 130.75 194.718 130.757 194.846L130.993 199.534C131.021 200.081 131.04 200.897 131.051 201.981ZM92.9418 186.871C92.9652 186.787 93.0157 186.714 93.0848 186.663C93.1538 186.613 93.2373 186.589 93.3214 186.595C93.6812 186.667 94.0319 186.782 94.3669 186.937C94.7584 187.083 95.1385 187.261 95.5039 187.468C95.5796 187.51 95.6482 187.564 95.7069 187.629C95.7458 187.705 95.7688 187.789 95.7745 187.875C95.8646 188.594 95.9522 189.312 96.0375 190.028C96.0982 190.684 96.2051 191.334 96.3572 191.974C96.8871 191.987 97.1677 191.957 97.1947 191.88C97.3205 191.548 97.4974 191.042 97.7256 190.361C97.9537 189.681 98.1313 189.172 98.2582 188.835C98.2591 188.832 98.2601 188.828 98.2611 188.824C98.2627 188.818 98.2645 188.812 98.2665 188.807C98.2681 188.803 98.2697 188.799 98.2714 188.795C98.274 188.789 98.2769 188.783 98.28 188.777C98.284 188.77 98.2886 188.762 98.2935 188.755C98.3103 188.731 98.3317 188.711 98.3562 188.696C98.3807 188.681 98.408 188.671 98.4362 188.667C98.4645 188.663 98.4933 188.665 98.5208 188.673C98.9407 188.789 99.3529 188.933 99.755 189.104C100.13 189.242 100.495 189.408 100.846 189.603C100.896 189.625 100.936 189.667 100.956 189.72C100.977 189.773 100.977 189.832 100.955 189.885C100.775 190.363 100.48 191.075 100.068 192.021C99.6571 192.967 99.3605 193.682 99.1786 194.165C98.9847 194.678 98.7145 195.458 98.3681 196.504C98.0217 197.55 97.7515 198.33 97.5576 198.843C97.5565 198.849 97.5549 198.855 97.5531 198.86C97.5512 198.866 97.5491 198.871 97.5466 198.876C97.5426 198.885 97.5378 198.893 97.5322 198.9C97.5196 198.917 97.5033 198.931 97.4848 198.94C97.4662 198.949 97.4459 198.953 97.4254 198.953C97.4049 198.952 97.3848 198.947 97.3667 198.937C97.2334 198.883 97.0347 198.796 96.7705 198.676C96.5063 198.555 96.3075 198.467 96.1739 198.413C96.0365 198.359 95.829 198.284 95.553 198.189C95.2769 198.094 95.0711 198.019 94.9379 197.967C94.9348 197.966 94.9318 197.965 94.9288 197.964C94.9251 197.963 94.9214 197.961 94.9178 197.959C94.9128 197.957 94.9079 197.954 94.9034 197.95C94.9003 197.948 94.8974 197.946 94.8946 197.943C94.8822 197.932 94.8724 197.918 94.8662 197.902C94.8599 197.886 94.8573 197.869 94.8586 197.852C94.8599 197.834 94.865 197.818 94.8735 197.803C94.9974 197.476 95.2007 196.988 95.4831 196.338C95.7656 195.689 95.969 195.201 96.0933 194.873C96.2374 194.494 96.2074 194.264 96.0032 194.182C95.791 194.082 95.5618 194.026 95.3287 194.018C95.0956 194.01 94.8634 194.05 94.6452 194.135C94.2318 194.361 93.8648 194.669 93.5645 195.042C93.2643 195.417 92.799 195.959 92.1687 196.668C92.1221 196.713 92.0632 196.743 91.9999 196.752C91.9367 196.761 91.8722 196.749 91.8156 196.718C91.704 196.671 91.5369 196.601 91.3158 196.496C91.0947 196.392 90.9286 196.317 90.8169 196.273C90.7052 196.229 90.5256 196.161 90.2919 196.078C90.0582 195.995 89.8866 195.931 89.7732 195.886C89.7586 195.883 89.7445 195.878 89.7316 195.87C89.7253 195.866 89.7193 195.862 89.7135 195.858C89.6961 195.843 89.682 195.825 89.6725 195.804C89.6631 195.783 89.6585 195.761 89.659 195.738C89.6596 195.714 89.6654 195.692 89.6759 195.672C89.8661 195.327 90.0926 195.005 90.3513 194.712C91.5181 193.252 92.5271 192.453 93.3781 192.315C93.5519 192.286 93.6483 192.247 93.669 192.194C93.669 192.198 93.5229 191.375 93.2309 189.725C92.9388 188.076 92.8415 187.125 92.9391 186.873L92.9418 186.871ZM103.981 35.3745V128.377L89.9529 161.171L84.7994 173.213L83.096 177.196L78.4581 188.034L76.8326 191.834L78.6896 188.19L83.9804 177.807L85.922 173.997L91.5802 162.893L109.168 128.379L109.237 128.245L131.754 85.1763V35.3745H103.981ZM150.848 75.0017V145.18L186.514 145.182V168.007H123.069V111.634L141.957 75.5066L142.22 75.0036L163.177 35.8346L169.035 24.887L171.042 21.1335L176.517 10.9018L177.705 8.68258L176.759 11.0225L172.386 21.8209L170.782 25.7804L165.859 37.9357L150.848 75.0017Z" fill="white"/>
</svg>
