<?xml version="1.0" encoding="UTF-8"?>
<svg id="Camada_2" data-name="Camada 2" xmlns="http://www.w3.org/2000/svg" viewBox="0 0 61.33 63.46">
  <defs>
    <style>
      .cls-1 {
        fill: #090a0a;
        fillRule: evenodd;
        strokeWidth: 0px;
      }
    </style>
  </defs>
  <g id="Camada_1-2" data-name="Camada 1">
    <path class="cls-1" d="M40.44,23.41c0,9.4-7.62,17.03-17.03,17.03S6.39,32.82,6.39,23.41,14.01,6.39,23.41,6.39s17.03,7.62,17.03,17.03ZM36.31,42.96c-3.7,2.45-8.13,3.87-12.9,3.87C10.48,46.83,0,36.35,0,23.41S10.48,0,23.41,0s23.41,10.48,23.41,23.41c0,5.86-2.15,11.21-5.71,15.32l19.28,19.28c1.25,1.25,1.25,3.27,0,4.52-1.25,1.25-3.27,1.25-4.52,0l-19.57-19.57s0,0,0,0Z"/>
  </g>
</svg>