<svg width="10" height="10" viewBox="0 0 10 10" fill="none" xmlns="http://www.w3.org/2000/svg">
<path d="M3 0.5H1.5C1.23478 0.5 0.98043 0.605357 0.792893 0.792893C0.605357 0.98043 0.5 1.23478 0.5 1.5V3M9.5 3V1.5C9.5 1.23478 9.39464 0.98043 9.20711 0.792893C9.01957 0.605357 8.76522 0.5 8.5 0.5H7M7 9.5H8.5C8.76522 9.5 9.01957 9.39464 9.20711 9.20711C9.39464 9.01957 9.5 8.76522 9.5 8.5V7M0.5 7V8.5C0.5 8.76522 0.605357 9.01957 0.792893 9.20711C0.98043 9.39464 1.23478 9.5 1.5 9.5H3" stroke="white" strokeLinecap="round" strokeLinejoin="round"/>
</svg>
