<?xml version="1.0" encoding="UTF-8"?>
<svg id="Camada_2" data-name="Camada 2" xmlns="http://www.w3.org/2000/svg" viewBox="0 0 72.11 85.5">
  <defs>
    <style>
      .cls-1 {
        fill: #000;
        stroke-width: 0px;
      }
    </style>
  </defs>
  <g id="Camada_1-2" data-name="Camada 1">
    <g>
      <path class="cls-1" d="M63.2,12.32l-2.5-3.88-2.76,3.96c-.47.68-1.25,1.09-2.08,1.09-.37,0-.72-.08-1.05-.23l-.1-.04,1.12,4.6c1.35-.47,3.19-.92,5.24-.92,1.56,0,3.04.26,4.41.78l1.06-4.5c-.37.2-.78.3-1.2.3-.87,0-1.68-.43-2.14-1.16Z"/>
      <path class="cls-1" d="M60.67,1.33c-6.32,0-11.44,5.12-11.44,11.44s5.12,11.44,11.44,11.44,11.44-5.12,11.44-11.44-5.12-11.44-11.44-11.44ZM67.86,19.51c-.12.51-.46.93-.94,1.15-.48.22-1.02.21-1.48-.03h0c-3.84-1.98-8.03-.57-9.65.12-.21.09-.44.14-.67.14-.26,0-.52-.06-.76-.18-.45-.22-.77-.63-.89-1.12l-2.05-8.37c-.13-.53.05-1.07.47-1.42.42-.35.99-.42,1.48-.2l2.43,1.11,3.79-5.45c.27-.38.7-.6,1.16-.6h.03c.47,0,.9.25,1.16.65l3.46,5.38,2.42-1.47c.49-.3,1.1-.27,1.56.06.46.33.67.91.54,1.46l-2.06,8.77Z"/>
      <path class="cls-1" d="M24.09,60.83l-2.74,9.94s-1.46,1.54-2.27-.65l1.71-8.57c-.24.03-.49.05-.72.05-1.4,0-3.31-.54-4.68-3.04l-5.38,23.7,6.49-3.28c.71-.36,1.56-.18,2.07.43l5.05,6.09,5.19-22.12c-.64-.29-1.26-.71-1.87-1.27-.93-.85-1.86-1.28-2.84-1.3Z"/>
      <path class="cls-1" d="M46.04,58.95c-1.33,2.16-3.12,2.65-4.46,2.65-.2,0-.41-.01-.62-.04l.88,3.33c.03.24-.06.48-.24.63-.17.14-.96.34-1.38.35-.29,0-.55-.19-.65-.47l-1.7-4.56c-.08,0-.17-.01-.25-.01-1,0-1.94.42-2.88,1.28-.8.73-1.63,1.23-2.47,1.5l4.79,16.43,5.75-6.96,7.73,3.32-4.37-17.61s-.05.07-.13.17Z"/>
      <rect class="cls-1" x="21.82" y="30.62" width="2.56" height="2.6"/>
      <path class="cls-1" d="M58.28,26.73c-6.68-1.14-11.79-6.95-11.79-13.95,0-1.57.27-3.08.74-4.49,0-.06,0-.12,0-.19-.3-1.42-2.86-2.22-3.65-4.35-.58-1.55-2.1-2.18-3.95-1.49-2.37.88-4.68.64-6.62-1.14-1.6-1.47-3.17-1.5-4.77-.05-1.84,1.67-4.04,2.13-6.29,1.3-2.3-.86-3.7-.07-4.71,1.89-1.18,2.28-2.9,3.62-5.56,3.72-2.22.08-3.49,1.19-3.63,3.57-.15,2.42-1.37,4.19-3.6,5.3-1.97.97-2.65,2.39-1.89,4.7.76,2.31.47,4.65-1.4,6.59-1.46,1.51-1.58,3.2-.1,4.82,1.78,1.94,2.16,4.15,1.27,6.56-.78,2.13.08,3.44,1.91,4.39,2.38,1.24,3.74,3.16,3.86,5.9.1,2.16,1.27,3.3,3.41,3.38,2.53.08,4.25,1.37,5.32,3.54,1.03,2.1,2.56,2.7,4.71,1.89,2.48-.93,4.68-.32,6.56,1.4,1.74,1.59,3.33,1.54,5.04-.02,1.89-1.73,4.08-2.29,6.56-1.37,2.16.8,3.71.17,4.7-1.92,1.06-2.22,2.82-3.44,5.32-3.52,2.4-.08,3.4-1.58,3.52-3.73.13-2.5,1.24-4.33,3.46-5.36,2.29-1.06,2.86-2.71,2.07-4.96-.78-2.24-.14-4.14,1.17-5.99,1.89-2.67,1.22-5.03-1.65-6.41ZM38.43,6.79c.36-.87,1.35-1.29,2.22-.93.92.38,1.83.81,2.7,1.29.82.45,1.13,1.49.67,2.31-.31.56-.89.88-1.49.88-.28,0-.56-.07-.82-.21-.76-.42-1.55-.8-2.36-1.13-.87-.36-1.29-1.35-.93-2.22ZM30.43,3.87h.05s0,0,0,0c.99,0,1.97.05,2.93.16.94.1,1.61.94,1.51,1.88-.09.87-.83,1.52-1.69,1.52-.06,0-.12,0-.19-.01-.84-.09-1.7-.14-2.54-.14h-.07c-.94,0-1.7-.76-1.7-1.7s.76-1.7,1.7-1.7ZM20.21,5.93c.92-.38,1.87-.72,2.82-1,.91-.26,1.85.26,2.11,1.16.26.9-.26,1.85-1.16,2.11-.83.24-1.66.53-2.46.87-.22.09-.44.13-.66.13-.67,0-1.3-.39-1.57-1.05-.36-.87.05-1.87.92-2.23ZM11.56,11.74c.7-.7,1.45-1.38,2.23-2,.73-.59,1.81-.47,2.4.26.59.73.47,1.81-.26,2.4-.68.55-1.33,1.13-1.94,1.75-.33.33-.77.5-1.21.5s-.87-.17-1.2-.5c-.67-.66-.67-1.74,0-2.41ZM5.78,20.42c.38-.92.82-1.83,1.3-2.7.45-.82,1.49-1.12,2.32-.67.82.45,1.12,1.49.67,2.31-.42.76-.8,1.55-1.13,2.36-.27.66-.91,1.06-1.58,1.06-.22,0-.44-.04-.65-.13-.87-.36-1.28-1.35-.93-2.22ZM3.78,30.64v-.05c0-.98.05-1.97.16-2.94.1-.94.94-1.61,1.88-1.51.94.1,1.61.94,1.51,1.88-.09.84-.14,1.71-.14,2.56,0,.94-.76,1.73-1.7,1.73s-1.7-.74-1.7-1.68ZM8.05,41.78c-.21.09-.44.13-.65.13-.67,0-1.3-.39-1.57-1.05-.38-.92-.72-1.87-.99-2.83-.26-.9.26-1.85,1.16-2.11.91-.26,1.85.26,2.11,1.16.24.83.53,1.66.87,2.46.36.87-.05,1.87-.92,2.23ZM14.04,49.51c-.33.33-.77.5-1.21.5s-.87-.17-1.2-.5c-.7-.7-1.38-1.45-2-2.23-.59-.73-.47-1.81.26-2.4.73-.59,1.81-.47,2.39.26.54.68,1.13,1.33,1.75,1.95.67.66.67,1.74,0,2.41ZM15.09,34.16v-7.82c-.68,0-1.24-.55-1.24-1.24v-.28c0-.46.17-.9.48-1.24l8.2-9.04c.33-.36.89-.35,1.21.01l1.11,1.26h16.46c.56,0,1.08.3,1.36.78l4.17,7.16c.2.35.31.75.31,1.16v.41c0,.33-.14.63-.36.86-.22.22-.52.35-.85.35v7.64c0,.87-.7,1.58-1.58,1.58h-27.71c-.87,0-1.58-.71-1.58-1.58ZM22.53,54.37c-.27.66-.91,1.05-1.58,1.05-.22,0-.44-.04-.65-.13-.92-.38-1.83-.82-2.7-1.3-.82-.46-1.12-1.49-.67-2.32.46-.82,1.49-1.12,2.32-.67.76.42,1.55.8,2.35,1.13.87.36,1.28,1.36.92,2.23ZM30.53,57.31h-.02c-.99,0-1.98-.05-2.96-.16-.94-.1-1.61-.95-1.51-1.88.1-.94.94-1.61,1.88-1.51.85.09,1.72.14,2.59.14.94,0,1.72.76,1.72,1.7s-.75,1.7-1.69,1.7ZM20.48,46.92c-.37,0-.67-.43-.67-.97v-.59c0-.53.3-.97.67-.97h20.05c.37,0,.67.43.67.97v.59c0,.53-.3.97-.67.97h-20.05ZM40.75,55.28c-.92.38-1.87.72-2.83.99-.16.05-.32.07-.47.07-.74,0-1.42-.49-1.64-1.23-.26-.9.26-1.85,1.16-2.11.83-.24,1.66-.53,2.46-.86.87-.36,1.87.05,2.23.92.36.87-.05,1.87-.92,2.23ZM43.88,41.91h-26.73c-.49,0-.89-.43-.89-.97v-.59c0-.53.4-.97.89-.97h26.73c.49,0,.89.43.89.97v.59c0,.53-.4.97-.89.97ZM49.4,49.48c-.7.7-1.45,1.38-2.23,2-.31.25-.69.37-1.06.37-.5,0-1-.22-1.33-.64-.59-.74-.47-1.81.27-2.4.68-.54,1.33-1.13,1.95-1.74.67-.67,1.74-.67,2.41,0,.67.67.67,1.74,0,2.41ZM55.2,40.82c-.38.92-.82,1.83-1.3,2.7-.31.56-.89.88-1.49.88-.28,0-.56-.07-.82-.21-.82-.46-1.12-1.49-.67-2.32.42-.76.8-1.55,1.13-2.35.36-.87,1.36-1.28,2.23-.92.87.36,1.28,1.36.92,2.23ZM57.22,30.56c0,1.03-.06,2.04-.17,3.02-.1.87-.83,1.51-1.69,1.51-.06,0-.13,0-.19-.01-.94-.1-1.61-.95-1.5-1.88.1-.86.14-1.74.14-2.61v-.1c0-.94.76-1.7,1.7-1.7s1.7.76,1.7,1.7v.06Z"/>
      <path class="cls-1" d="M19.44,29.54c0-.84.68-1.52,1.52-1.52h4.42c.84,0,1.52.68,1.52,1.52v3.67h1.79v-9.29l-1.17-1.28-3.8-4.16c-.33-.36-.88-.36-1.21,0l-4.97,5.45v9.29h1.9v-3.67Z"/>
      <path class="cls-1" d="M30.52,21.84l1.81,2.06.28.32c.4.43.28,1.2-.15,1.6l-.32.3c-.27.26-.65.34-.98.25,0,0-.01,0-.02,0v6.84h12.14v-6.76h-6.91c-.58,0-1.06-.47-1.06-1.06v-.44c0-.58.47-1.06,1.06-1.06h7.36l-3.07-5.52h-13.39l1.83,1.95,1.43,1.52Z"/>
    </g>
  </g>
</svg>