<?xml version="1.0" encoding="UTF-8"?>
<svg id="Camada_2" data-name="Camada 2" xmlns="http://www.w3.org/2000/svg" viewBox="0 0 74.91 74.89">
  <defs>
    <style>
      .cls-1 {
        fill: #000;
        fill-rule: evenodd;
        strokeWidth: 0px;
      }
    </style>
  </defs>
  <g id="Camada_1-2" data-name="Camada 1">
    <path class="cls-1" d="M37.45,0C16.77,0,0,16.75,0,37.44c0,6.98,1.92,13.52,5.23,19.11L0,74.89l19.78-4.43c5.27,2.82,11.29,4.43,17.68,4.43,20.68,0,37.45-16.75,37.45-37.45S58.14,0,37.45,0ZM37.45,68.01c-6.39,0-12.32-1.95-17.23-5.3l-7.44,2.89-3.98,1.56,1.41-4.03,2.62-7.55c-3.76-5.07-5.97-11.34-5.97-18.15,0-16.88,13.7-30.56,30.58-30.56s30.56,13.68,30.56,30.56-13.68,30.58-30.56,30.58Z"/>
  </g>
</svg>