<svg width="28" height="28" viewBox="0 0 28 28" fill="none" xmlns="http://www.w3.org/2000/svg">
<g filter="url(#filter0_b_1114_371)">
<path d="M0 7C0 3.13401 3.13401 0 7 0H14H21C24.866 0 28 3.13401 28 7V21C28 24.866 24.866 28 21 28H7C3.13401 28 0 24.866 0 21V7Z" fill="black" fillOpacity="0.2"/>
</g>
<path d="M6 20.8572C6 21.3206 6.25327 22.0001 6.89909 22.0001H20.8571C21.4883 22.0001 22 21.4884 22 20.8572C22 20.226 21.4883 19.7144 20.8571 19.7144H6.89909C6.25327 19.7144 6 20.3939 6 20.8572Z" fill="white"/>
<path d="M6 16.2857C6 16.749 6.25327 17.4285 6.89909 17.4285H20.8571C21.4883 17.4285 22 16.9169 22 16.2857C22 15.6545 21.4883 15.1428 20.8571 15.1428H6.89909C6.25327 15.1428 6 15.8223 6 16.2857Z" fill="white"/>
<path d="M6 11.7143C6 12.1776 6.25327 12.8571 6.89909 12.8571H20.8571C21.4883 12.8571 22 12.3455 22 11.7143C22 11.0831 21.4883 10.5714 20.8571 10.5714H6.89909C6.25327 10.5714 6 11.2509 6 11.7143Z" fill="white"/>
<path d="M6 7.14286C6 7.60622 6.25327 8.28571 6.89909 8.28571H20.8571C21.4883 8.28571 22 7.77404 22 7.14286C22 6.51167 21.4883 6 20.8571 6H6.89909C6.25327 6 6 6.67949 6 7.14286Z" fill="white"/>
<defs>
<filter id="filter0_b_1114_371" x="-222.4" y="-222.4" width="472.8" height="472.8" filterUnits="userSpaceOnUse" colorInterpolationFilters="sRGB">
<feFlood floodOpacity="0" result="BackgroundImageFix"/>
<feGaussianBlur in="BackgroundImageFix" stdDeviation="111.2"/>
<feComposite in2="SourceAlpha" operator="in" result="effect1_backgroundBlur_1114_371"/>
<feBlend mode="normal" in="SourceGraphic" in2="effect1_backgroundBlur_1114_371" result="shape"/>
</filter>
</defs>
</svg>
