<?xml version="1.0" encoding="UTF-8"?>
<svg id="Camada_2" data-name="Camada 2" xmlns="http://www.w3.org/2000/svg" viewBox="0 0 89.94 94.77">
  <defs>
    <style>
      .cls-1 {
        fill: #000;
      }

      .cls-1, .cls-2 {
        strokeWidth: 0px;
      }

      .cls-2 {
        fill: #1d1d1b;
      }
    </style>
  </defs>
  <g id="Camada_1-2" data-name="Camada 1">
    <g>
      <path class="cls-2" d="M50.75,3.35h12.36c.8,0,1.44.64,1.44,1.44v16.09l-15.24-12.18v-3.91c0-.8.64-1.44,1.44-1.44Z"/>
      <path class="cls-2" d="M35.18,12.73h0c.67,0,1.31.23,1.83.65l27.54,22.25v4.9s-4.9,2.32-7.13,5.61l-.02-7.4h-20.81v17.23h15.88v7.43l-3.1,3.56h-17.03v-28.34H13.37v28.34h-7.9v-31.34l27.9-22.26c.52-.41,1.16-.64,1.82-.64Z"/>
      <rect class="cls-2" x="16.57" y="41.78" width="12.06" height="25.19"/>
      <rect class="cls-2" x="39.68" y="41.78" width="13.96" height="10.93"/>
      <path class="cls-2" d="M2.7,69.58h43.97l-7.35,7.35H2.7c-1.49,0-2.7-1.21-2.7-2.7v-1.96c0-1.49,1.21-2.7,2.7-2.7Z"/>
      <circle class="cls-2" cx="75.92" cy="56.15" r="3.33"/>
      <path class="cls-2" d="M72.89,42.43c-9.42,0-17.05,7.63-17.05,17.05,0,1.62.24,3.19.66,4.67l-.02-.02-19.68,19.68v10.96h12.74v-6.24h6.3v-5.82h5.58l6.78-6.78-.09-.09c1.52.44,3.12.69,4.78.69,9.42,0,17.05-7.63,17.05-17.05s-7.63-17.05-17.05-17.05ZM75.92,62.92c-3.74,0-6.77-3.03-6.77-6.77s3.03-6.77,6.77-6.77,6.77,3.03,6.77,6.77-3.03,6.77-6.77,6.77Z"/>
      <path class="cls-1" d="M68.65,26.52L37.81,1.45l-.98-.79c-.48-.39-1.04-.61-1.62-.66-.05,0-.1,0-.15,0-.05,0-.1,0-.15,0-.57.05-1.14.27-1.62.66l-.97.78L1.36,26.52c-1.29,1.05-1.49,2.94-.44,4.23l.84,1.03c1.05,1.29,2.94,1.49,4.23.44l28.15-22.79c.54-.44,1.31-.43,1.85,0l28.04,22.79c1.29,1.05,3.19.85,4.23-.44l.84-1.03c1.05-1.29.85-3.19-.44-4.23Z"/>
    </g>
  </g>
</svg>