<?xml version="1.0" encoding="UTF-8"?>
<svg id="Camada_2" data-name="Camada 2" xmlns="http://www.w3.org/2000/svg" viewBox="0 0 60.28 64.87">
  <defs>
    <style>
      .cls-1 {
        fill: #010101;
        stroke-width: 0px;
      }
    </style>
  </defs>
  <g id="Camada_1-2" data-name="Camada 1">
    <path class="cls-1" d="M56.75,51.38H3.5c-1.54,0-2.9-1.01-3.35-2.49-.45-1.48.12-3.07,1.41-3.93.02-.02,7.32-5.51,7.32-23.71,0-5.68,2.21-11.01,6.22-15.03C19.11,2.21,24.45,0,30.13,0s11.01,2.21,15.03,6.22c4.01,4.01,6.22,9.35,6.22,15.03,0,18.2,7.3,23.7,7.37,23.75,1.28.86,1.83,2.43,1.38,3.91-.45,1.48-1.83,2.47-3.38,2.47ZM10.84,44.38h38.57c-2.55-4.53-5.03-11.83-5.03-23.13,0-3.81-1.48-7.39-4.17-10.08-2.69-2.69-6.27-4.17-10.08-4.17s-7.39,1.48-10.08,4.17c-2.69,2.69-4.17,6.27-4.17,10.08,0,11.3-2.48,18.6-5.03,23.13Z"/>
    <path class="cls-1" d="M56.75,51.38H3.5c-1.54,0-2.9-1.01-3.35-2.49-.45-1.48.12-3.07,1.41-3.93.02-.02,7.32-5.51,7.32-23.71,0-5.68,2.21-11.01,6.22-15.03C19.11,2.21,24.45,0,30.13,0s11.01,2.21,15.03,6.22c4.01,4.01,6.22,9.35,6.22,15.03,0,18.2,7.3,23.7,7.37,23.75,1.28.86,1.83,2.43,1.38,3.91-.45,1.48-1.83,2.47-3.38,2.47ZM10.84,44.38h38.57c-2.55-4.53-5.03-11.83-5.03-23.13,0-3.81-1.48-7.39-4.17-10.08-2.69-2.69-6.27-4.17-10.08-4.17s-7.39,1.48-10.08,4.17c-2.69,2.69-4.17,6.27-4.17,10.08,0,11.3-2.48,18.6-5.03,23.13Z"/>
    <path class="cls-1" d="M30.14,64.87c-1.65,0-3.27-.43-4.7-1.26-1.43-.82-2.62-2.01-3.45-3.44-.97-1.67-.4-3.81,1.27-4.78,1.67-.97,3.81-.4,4.78,1.27.21.37.52.67.88.88.73.42,1.68.42,2.41,0,.37-.21.67-.52.88-.88.97-1.67,3.11-2.24,4.78-1.27,1.67.97,2.24,3.11,1.27,4.78-.83,1.42-2.02,2.61-3.44,3.43-1.43.82-3.05,1.26-4.7,1.26Z"/>
  </g>
</svg>