<?xml version="1.0" encoding="UTF-8"?>
<svg id="Camada_2" data-name="Camada 2" xmlns="http://www.w3.org/2000/svg" viewBox="0 0 56.33 62.5">
  <defs>
    <style>
      .cls-1 {
        fill: #010101;
        strokeWidth: 0px;
      }
    </style>
  </defs>
  <g id="Camada_1-2" data-name="Camada 1">
    <path class="cls-1" d="M52.83,62.5c-1.93,0-3.5-1.57-3.5-3.5v-6.17c0-2.36-.92-4.58-2.59-6.25-1.67-1.67-3.89-2.59-6.25-2.59H15.83c-2.36,0-4.58.92-6.25,2.59s-2.59,3.89-2.59,6.25v6.17c0,1.93-1.57,3.5-3.5,3.5s-3.5-1.57-3.5-3.5v-6.17c0-4.23,1.65-8.2,4.64-11.2,2.99-2.99,6.97-4.64,11.2-4.64h24.67c4.23,0,8.2,1.65,11.2,4.64,2.99,2.99,4.64,6.97,4.64,11.2v6.17c0,1.93-1.57,3.5-3.5,3.5Z"/>
    <path class="cls-1" d="M28.17,31.67c-8.73,0-15.83-7.1-15.83-15.83S19.44,0,28.17,0s15.83,7.1,15.83,15.83-7.1,15.83-15.83,15.83ZM28.17,7c-4.87,0-8.83,3.96-8.83,8.83s3.96,8.83,8.83,8.83,8.83-3.96,8.83-8.83-3.96-8.83-8.83-8.83Z"/>
  </g>
</svg>