<?xml version="1.0" encoding="UTF-8"?>
<svg id="Camada_2" data-name="Camada 2" xmlns="http://www.w3.org/2000/svg" xmlns:xlink="http://www.w3.org/1999/xlink" viewBox="0 0 86.9 86.9">
  <defs>
    <style>
      .cls-1 {
        fill: #000;
      }

      .cls-1, .cls-2, .cls-3 {
        stroke-width: 0px;
      }

      .cls-2 {
        fill: none;
      }

      .cls-3 {
        fill: #010101;
      }

      .cls-4 {
        clip-path: url(#clippath);
      }
    </style>
    <clipPath id="clippath">
      <rect class="cls-2" x="29.92" y="21.51" width="27.07" height="43.89"/>
    </clipPath>
  </defs>
  <g id="Camada_1-2" data-name="Camada 1">
    <g>
      <g class="cls-4">
        <g>
          <path class="cls-3" d="M38.07,35.09h-8.16c.04-.84.06-1.66.13-2.48.19-2.11.63-4.15,1.72-5.99,1.4-2.35,3.49-3.82,6.1-4.46,4.28-1.05,8.53-.92,12.6.92,4.51,2.03,6.85,6.04,6.48,10.98-.22,2.95-1.56,5.35-3.87,7.18-1.39,1.1-2.81,2.17-4.26,3.21-1.58,1.14-2.52,2.62-2.62,4.6-.02.46-.08.91-.1,1.37-.03.7-.22.92-.92.94-.76.02-1.51,0-2.27,0-1.27,0-2.53,0-3.8,0-.95,0-1.08-.13-1.03-1.07.1-2.16.38-4.29,1.49-6.21.85-1.49,2.14-2.56,3.48-3.57,1.08-.82,2.29-1.49,3.27-2.4,1.45-1.36,2.47-3,2.22-5.14-.57-4.94-5.35-5.87-8.03-4.22-1.53.94-2.33,2.42-2.42,4.23-.03.68,0,1.37,0,2.1h0Z"/>
          <path class="cls-3" d="M36.89,60.5c.03-2.89,2.13-4.97,4.99-4.94,2.91.03,4.98,2.11,4.96,4.97-.02,2.89-2.09,4.89-5.04,4.86-2.87-.03-4.94-2.09-4.91-4.89h0Z"/>
        </g>
      </g>
      <path class="cls-1" d="M43.45,86.9C19.49,86.9,0,67.41,0,43.45S19.49,0,43.45,0s43.45,19.49,43.45,43.45-19.49,43.45-43.45,43.45ZM43.45,7C23.35,7,7,23.35,7,43.45s16.35,36.45,36.45,36.45,36.45-16.35,36.45-36.45S63.55,7,43.45,7Z"/>
    </g>
  </g>
</svg>