<svg width="50" height="47" viewBox="0 0 50 47" fill="none" xmlns="http://www.w3.org/2000/svg">
<g clip-path="url(#clip0_813_247)">
<path d="M10.2311 41.0904C12.3275 43.0864 14.3243 44.989 16.4138 46.9783H0V31.5087C1.99507 33.4162 3.99528 35.327 6.03499 37.2771C8.16912 35.2222 10.1951 33.2721 12.1799 31.3613C13.6152 32.7301 14.9578 34.0089 16.3108 35.2975C14.3277 37.1854 12.3035 39.1158 10.2294 41.0904H10.2311Z" fill="black"/>
<path d="M0 15.5007V0H16.2764C14.2573 1.91897 12.252 3.82484 10.2569 5.71925C12.3859 7.73809 14.4153 9.66198 16.4224 11.5662C14.951 12.9383 13.5843 14.2122 12.2039 15.4975C10.2775 13.6604 8.25325 11.7283 6.24102 9.8077C4.17899 11.7774 2.17191 13.6931 0.166542 15.6105C0.1116 15.5744 0.0549416 15.5368 0 15.5007Z" fill="black"/>
<path d="M49.3196 31.3105V46.9865H32.9505C35.0125 45.0217 37.0179 43.1093 39.0387 41.1837C36.956 39.2091 34.9249 37.2852 32.9453 35.4088C34.3635 34.0646 35.7078 32.7891 37.0745 31.4956C39.0009 33.3409 41.032 35.2844 43.1061 37.2705C45.2024 35.2598 47.2009 33.3425 49.3196 31.3105Z" fill="black"/>
<path d="M37.089 15.6441C35.6639 14.2884 34.3333 13.0227 32.9975 11.7521C35.0063 9.843 37.0443 7.90602 39.1235 5.92975C37.01 3.92072 35.0029 2.01485 32.8945 0.0107422H49.2997V15.4706C47.3081 13.5696 45.2993 11.6539 43.2854 9.7333C41.1426 11.7783 39.1184 13.7088 37.089 15.6441Z" fill="black"/>
</g>
<defs>
<clipPath id="clip0_813_247">
<rect width="49.3204" height="47" fill="white"/>
</clipPath>
</defs>
</svg>
