<svg width="96" height="48" viewBox="0 0 96 48" fill="none" xmlns="http://www.w3.org/2000/svg">
<path fillRule="evenodd" clipRule="evenodd" d="M0.713867 18.6749C0.713867 16.7463 2.32893 15.1953 4.27753 15.1953H8.87395C10.8225 15.1953 12.4376 16.7463 12.4376 18.6749V28.6041H46.6731V3.62667C46.6731 2.27647 45.5322 1.14714 44.1094 1.14714H11.7853C10.3626 1.14714 9.22165 2.27647 9.22165 3.62667V14.6526H8.22165V3.62667C8.22165 1.69812 9.83672 0.147138 11.7853 0.147138H44.1094C45.4341 0.147138 46.6047 0.863953 47.2185 1.92891C47.8525 0.946469 48.9747 0.295842 50.2368 0.295842H84.0937C86.0422 0.295842 87.6573 1.84682 87.6573 3.77537V14.8013H86.6573V3.77537C86.6573 2.42517 85.5164 1.29584 84.0937 1.29584H50.2368C48.814 1.29584 47.6731 2.42517 47.6731 3.77537V28.6041H83.4402V18.6749C83.4402 16.7463 85.0552 15.1953 87.0038 15.1953H91.7513H91.7531C93.575 15.1964 95.1196 16.7617 95.4594 18.5832L95.4678 18.6286V18.6749V38.1932C95.4678 40.1218 93.8528 41.6728 91.9042 41.6728H87.8078V44.1523C87.8078 46.0809 86.1927 47.6318 84.2441 47.6318H77.9639C76.0153 47.6318 74.4002 46.0809 74.4002 44.1523V41.6728H20.2506V44.1523C20.2506 46.0809 18.6355 47.6318 16.6869 47.6318H11.9376C9.98902 47.6318 8.37395 46.0809 8.37395 44.1523V41.6728H4.27753C2.32893 41.6728 0.713867 40.1218 0.713867 38.1932V18.6749ZM91.7513 16.1953H87.0038C85.5811 16.1953 84.4402 17.3246 84.4402 18.6749V29.1041V29.6041H83.9402H11.9376H11.4376V29.1041V18.6749C11.4376 17.3247 10.2967 16.1953 8.87395 16.1953H4.27753C2.85479 16.1953 1.71387 17.3247 1.71387 18.6749V38.1932C1.71387 39.5434 2.85479 40.6728 4.27753 40.6728H8.87395H9.37395V41.1728V44.1523C9.37395 45.5025 10.5149 46.6318 11.9376 46.6318H16.6869C18.1097 46.6318 19.2506 45.5025 19.2506 44.1523V41.1728V40.6728H19.7506H74.9002H75.4002V41.1728V44.1523C75.4002 45.5025 76.5411 46.6318 77.9639 46.6318H84.2441C85.6668 46.6318 86.8078 45.5025 86.8078 44.1523V41.1728V40.6728H87.3078H91.9042C93.3269 40.6728 94.4678 39.5434 94.4678 38.1932V18.7227C94.1802 17.2876 92.9779 16.1953 91.7513 16.1953ZM16.5346 37.2026H77.8135V36.2026H16.5346V37.2026Z" fill="black"/>
</svg>
