<?xml version="1.0" encoding="UTF-8"?>
<svg id="Camada_2" data-name="Camada 2" xmlns="http://www.w3.org/2000/svg" xmlns:xlink="http://www.w3.org/1999/xlink" viewBox="0 0 74.91 74.89">
  <defs>
    <style>
      .cls-1 {
        fill: url(#Gradiente_sem_nome_27-2);
      }

      .cls-1, .cls-2, .cls-3 {
        fillRule: evenodd;
        strokeWidth: 0px;
      }

      .cls-2 {
        fill: url(#Gradiente_sem_nome_27);
      }

      .cls-3 {
        fill: url(#Gradiente_sem_nome_12);
      }
    </style>
    <linearGradient id="Gradiente_sem_nome_27" data-name="Gradiente sem nome 27" x1="2.83" y1="74.12" x2="64.52" y2="8.77" gradientUnits="userSpaceOnUse">
      <stop offset="0" stop-color="#cbcaca"/>
      <stop offset=".5" stop-color="#fefdfc"/>
      <stop offset="1" stop-color="#d1d0d0"/>
    </linearGradient>
    <linearGradient id="Gradiente_sem_nome_12" data-name="Gradiente sem nome 12" x1="37.45" y1="6.57" x2="37.45" y2="67.86" gradientUnits="userSpaceOnUse">
      <stop offset="0" stop-color="#40a835"/>
      <stop offset=".5" stop-color="#178f38"/>
      <stop offset="1" stop-color="#46ac34"/>
    </linearGradient>
    <linearGradient id="Gradiente_sem_nome_27-2" data-name="Gradiente sem nome 27" x1="30.73" y1="45.97" x2="42.97" y2="33" xlink:href="#Gradiente_sem_nome_27"/>
  </defs>
  <g id="Camada_1-2" data-name="Camada 1">
    <path class="cls-2" d="M37.45,0C16.77,0,0,16.75,0,37.44c0,6.98,1.92,13.52,5.23,19.11L0,74.89l19.78-4.43c5.27,2.82,11.29,4.43,17.68,4.43,20.68,0,37.45-16.75,37.45-37.45S58.14,0,37.45,0ZM37.45,68.01c-6.39,0-12.32-1.95-17.23-5.3l-7.44,2.89-3.98,1.56,1.41-4.03,2.62-7.55c-3.76-5.07-5.97-11.34-5.97-18.15,0-16.88,13.7-30.56,30.58-30.56s30.56,13.68,30.56,30.56-13.68,30.58-30.56,30.58Z"/>
    <path class="cls-3" d="M37.46,6.88c-16.88,0-30.58,13.68-30.58,30.56,0,6.8,2.21,13.08,5.97,18.15l-2.62,7.55-1.41,4.03,3.98-1.56,7.44-2.89c4.9,3.35,10.84,5.3,17.23,5.3,16.88,0,30.56-13.68,30.56-30.58S54.34,6.88,37.46,6.88ZM54.67,52.62c.02.47-.09.96-.29,1.39-.18.45-.47.85-.83,1.18-.34.33-.76.56-1.23.72-.45.14-.94.22-1.41.16-5.34-.58-10.46-2.39-14.95-5.32-4.18-2.66-7.73-6.21-10.39-10.39-2.93-4.52-4.76-9.66-5.32-15.02-.05-.47.02-.96.16-1.41.16-.45.4-.87.72-1.23.33-.36.72-.63,1.16-.83s.92-.29,1.39-.29h5.19c.85-.02,1.66.29,2.3.83s1.05,1.3,1.18,2.14c.22,1.66.62,3.29,1.21,4.87.24.63.27,1.3.14,1.95-.14.63-.47,1.23-.92,1.7l-2.21,2.21c2.46,4.32,6.06,7.93,10.39,10.39l2.21-2.21c.47-.45,1.07-.78,1.72-.92.63-.13,1.32-.09,1.94.14,1.57.6,3.2,1,4.87,1.21.83.13,1.61.54,2.15,1.19s.85,1.48.81,2.33v5.19Z"/>
    <path class="cls-1" d="M35.96,50.75c4.49,2.93,9.61,4.74,14.95,5.32.47.05.96-.02,1.41-.16.47-.16.89-.4,1.23-.72.36-.33.65-.72.83-1.18.2-.43.31-.92.29-1.39v-5.19c.04-.85-.27-1.68-.81-2.33-.54-.65-1.32-1.07-2.15-1.19-1.66-.22-3.29-.62-4.87-1.21-.62-.24-1.3-.27-1.94-.14-.65.14-1.25.47-1.72.92l-2.21,2.21c-4.32-2.46-7.93-6.06-10.39-10.39l2.21-2.21c.45-.47.78-1.07.92-1.7.13-.65.09-1.32-.14-1.95-.6-1.57-1-3.2-1.21-4.87-.13-.83-.54-1.59-1.18-2.14-.63-.54-1.45-.85-2.3-.83h-5.19c-.47,0-.96.09-1.39.29-.43.2-.83.47-1.16.83-.33.36-.56.78-.72,1.23-.14.45-.22.94-.16,1.41.56,5.36,2.39,10.49,5.32,15.02,2.66,4.18,6.21,7.73,10.39,10.39Z"/>
  </g>
</svg>